<svg width="19" height="19" viewBox="0 0 19 19" fill="none" xmlns="http://www.w3.org/2000/svg">
<g clip-path="url(#clip0_49_4069)">
<path d="M11.9691 3.04137L13.0181 1.99231L14.8726 3.84676L17.9509 0.76828L19 1.81734L14.8726 5.94475L11.9691 3.04137ZM17.8638 5.05166C18.599 6.41673 18.9894 7.95068 18.9894 9.54479C18.9894 12.081 18.0018 14.4653 16.2085 16.2587C14.4153 18.052 12.0308 19.0267 9.49478 19.0267C6.95859 19.0267 4.57431 18.052 2.78088 16.2587C0.987602 14.4653 0 12.081 0 9.54479C0 7.00874 0.987602 4.62432 2.78088 2.83104C4.57431 1.03776 6.95859 0.0371094 9.49478 0.0371094C10.4989 0.0371094 11.4791 0.205551 12.4084 0.503876L11.1963 1.71616C10.6476 1.59701 10.0785 1.53366 9.49478 1.53366C5.07732 1.53366 1.48351 5.12747 1.48351 9.54479C1.48351 11.5657 2.23613 13.414 3.47509 14.8249C3.9062 12.8959 5.243 11.3053 7.0144 10.5241C6.27482 9.84978 5.80994 8.879 5.80994 7.80167C5.80994 5.76993 7.4629 4.11682 9.49478 4.11682C11.5265 4.11682 13.1795 5.76978 13.1795 7.80167C13.1795 8.879 12.7147 9.84978 11.9752 10.5241C13.7464 11.3053 15.0834 12.8959 15.5143 14.8249C16.7534 13.4139 17.5059 11.5657 17.5059 9.54479C17.5059 8.33613 17.2363 7.18922 16.7549 6.16059L17.8638 5.05166ZM9.49478 10.0029C10.7085 10.0029 11.696 9.0154 11.696 7.80167C11.696 6.58778 10.7085 5.60033 9.49478 5.60033C8.2809 5.60033 7.29344 6.58778 7.29344 7.80167C7.29344 9.0154 8.2809 10.0029 9.49478 10.0029ZM9.49478 17.5561C11.2415 17.5561 12.8593 16.9936 14.1772 16.041C14.1082 13.5178 12.0343 11.4864 9.49478 11.4864C6.95525 11.4864 4.88119 13.5178 4.81233 16.041C6.13029 16.9936 7.74789 17.5561 9.49478 17.5561Z" fill="#2C7955"/>
</g>
<defs>
<clipPath id="clip0_49_4069">
<rect width="19" height="19" fill="white"/>
</clipPath>
</defs>
</svg>
