<svg width="23" height="23" viewBox="0 0 23 23" fill="none" xmlns="http://www.w3.org/2000/svg">
<path d="M18.6868 12.9375H17.2493C17.1235 12.9375 16.9989 12.9127 16.8826 12.8646C16.7663 12.8164 16.6606 12.7458 16.5716 12.6568C16.4826 12.5678 16.412 12.4622 16.3639 12.3459C16.3157 12.2296 16.291 12.105 16.291 11.9791V7.18746C16.291 7.0616 16.3157 6.93697 16.3639 6.82068C16.412 6.7044 16.4826 6.59874 16.5716 6.50974C16.6606 6.42075 16.7663 6.35016 16.8826 6.30201C16.9989 6.25386 17.1235 6.22909 17.2493 6.22913H18.6868C19.5764 6.22913 20.4296 6.58251 21.0586 7.21154C21.6876 7.84057 22.041 8.69371 22.041 9.58329C22.041 10.4729 21.6876 11.326 21.0586 11.955C20.4296 12.5841 19.5764 12.9375 18.6868 12.9375ZM18.2077 11.0208H18.6868C19.0681 11.0208 19.4337 10.8693 19.7033 10.5998C19.9729 10.3302 20.1243 9.96454 20.1243 9.58329C20.1243 9.20204 19.9729 8.83641 19.7033 8.56683C19.4337 8.29724 19.0681 8.14579 18.6868 8.14579H18.2077V11.0208Z" fill="#2C7955"/>
<path d="M9.69231 22.0416H9.35868C8.65823 22.0406 7.98216 21.7843 7.45707 21.3208C6.93199 20.8572 6.5939 20.2181 6.50613 19.5232L5.75743 13.5354C5.74054 13.4006 5.75252 13.2637 5.79259 13.1339C5.83265 13.004 5.89988 12.8842 5.98981 12.7823C6.07974 12.6804 6.19031 12.5988 6.31418 12.543C6.43805 12.4871 6.57239 12.4582 6.70828 12.4583H9.58328C9.77832 12.4583 9.96871 12.5178 10.1291 12.6288C10.2894 12.7398 10.4121 12.8971 10.4808 13.0797L12.3848 18.1568C12.5479 18.5918 12.6031 19.0599 12.5458 19.5209C12.4884 19.9819 12.3202 20.4222 12.0556 20.8041C11.7909 21.1859 11.4377 21.4979 11.0261 21.7135C10.6146 21.929 10.1569 22.0416 9.69231 22.0416ZM7.79385 14.3749L8.40779 19.2854C8.4371 19.517 8.54981 19.7301 8.72484 19.8846C8.89986 20.0391 9.1252 20.1245 9.35868 20.1249H9.69231C9.84721 20.1249 9.9998 20.0874 10.137 20.0155C10.2743 19.9437 10.392 19.8396 10.4802 19.7123C10.5685 19.585 10.6245 19.4382 10.6436 19.2845C10.6627 19.1308 10.6442 18.9747 10.5898 18.8297L8.91928 14.3749H7.79385Z" fill="#2C7955"/>
<path d="M15.8126 17.1723C15.3952 17.1717 14.9853 17.0617 14.6236 16.8532L10.729 14.6277C10.4391 14.4626 10.1113 14.3755 9.77767 14.375H5.74967C4.47885 14.375 3.26007 13.8701 2.36145 12.9715C1.46284 12.0729 0.958008 10.8541 0.958008 9.58329C0.958008 8.31247 1.46284 7.09369 2.36145 6.19507C3.26007 5.29646 4.47885 4.79163 5.74967 4.79163H9.77767C10.1114 4.79103 10.4393 4.70397 10.7295 4.53894L14.6236 2.31344C14.988 2.10534 15.4007 1.99659 15.8203 1.99806C16.2399 1.99954 16.6518 2.11118 17.0147 2.32184C17.3776 2.53249 17.6789 2.83476 17.8883 3.19839C18.0977 3.56203 18.208 3.97429 18.208 4.39392V14.7727C18.2066 15.4079 17.9539 16.0168 17.5051 16.4664C17.0563 16.916 16.4479 17.1698 15.8126 17.1723ZM5.74967 6.70829C4.98718 6.70829 4.25591 7.0112 3.71674 7.55036C3.17758 8.08953 2.87467 8.8208 2.87467 9.58329C2.87467 10.3458 3.17758 11.0771 3.71674 11.6162C4.25591 12.1554 4.98718 12.4583 5.74967 12.4583H9.77767C10.4447 12.459 11.1 12.6331 11.6794 12.9637L15.5745 15.1892C15.6474 15.2307 15.73 15.2524 15.8139 15.2521C15.8978 15.2518 15.9802 15.2294 16.0528 15.1872C16.1254 15.1451 16.1856 15.0846 16.2275 15.0118C16.2693 14.9391 16.2913 14.8566 16.2913 14.7727V4.39392C16.2913 4.30999 16.2693 4.22753 16.2274 4.15478C16.1856 4.08204 16.1253 4.02156 16.0528 3.9794C15.9802 3.93724 15.8978 3.91486 15.8139 3.91452C15.73 3.91418 15.6474 3.93588 15.5745 3.97746L11.6798 6.20293C11.1003 6.53339 10.4448 6.70754 9.77767 6.70829H5.74967Z" fill="#2C7955"/>
<path d="M9.58333 11.5C9.45747 11.5 9.33284 11.4752 9.21656 11.4271C9.10027 11.3789 8.99461 11.3083 8.90562 11.2193C8.81662 11.1303 8.74603 11.0247 8.69788 10.9084C8.64973 10.7921 8.62497 10.6675 8.625 10.5416V5.74996C8.625 5.49579 8.72597 5.25204 8.90569 5.07232C9.08541 4.89259 9.32917 4.79163 9.58333 4.79163C9.8375 4.79163 10.0813 4.89259 10.261 5.07232C10.4407 5.25204 10.5417 5.49579 10.5417 5.74996V10.5416C10.5417 10.6675 10.5169 10.7921 10.4688 10.9084C10.4206 11.0247 10.35 11.1303 10.2611 11.2193C10.1721 11.3083 10.0664 11.3789 9.95011 11.4271C9.83383 11.4752 9.70919 11.5 9.58333 11.5Z" fill="#2C7955"/>
</svg>
