<svg width="11" height="11" viewBox="0 0 11 11" fill="none" xmlns="http://www.w3.org/2000/svg">
<path d="M3.66666 10.1384C3.42696 10.14 3.19223 10.07 2.99258 9.93734C2.79294 9.80467 2.63747 9.6154 2.54611 9.39379C2.45476 9.17217 2.43168 8.92832 2.47985 8.6935C2.52802 8.45869 2.64523 8.24361 2.81645 8.07586L5.40604 5.50002L2.81645 2.91273C2.60393 2.68466 2.48823 2.383 2.49373 2.07131C2.49923 1.75961 2.6255 1.46223 2.84593 1.24179C3.06637 1.02136 3.36376 0.895091 3.67545 0.889592C3.98714 0.884092 4.2888 0.99979 4.51687 1.21231L8.64187 5.33731C8.66335 5.35862 8.6804 5.38396 8.69203 5.41189C8.70367 5.43982 8.70966 5.46977 8.70966 5.50002C8.70966 5.53027 8.70367 5.56023 8.69203 5.58815C8.6804 5.61608 8.66335 5.64143 8.64187 5.66273L4.51687 9.78773C4.29094 10.0124 3.98526 10.1384 3.66666 10.1384Z" fill="#2C7955"/>
</svg>
