<svg width="13" height="13" viewBox="0 0 13 13" fill="none" xmlns="http://www.w3.org/2000/svg">
<path d="M12.8942 6.24338L9.18345 2.53263C9.04196 2.39114 8.81504 2.39114 8.67355 2.53263C8.53206 2.67412 8.53206 2.90104 8.67355 3.04253L11.7703 6.13927H0.360397C0.160176 6.13927 0 6.29945 0 6.49967C0 6.69989 0.160176 6.86006 0.360397 6.86006H11.7703L8.67355 9.95681C8.53206 10.0983 8.53206 10.3252 8.67355 10.4667C8.74296 10.5361 8.8364 10.5735 8.92717 10.5735C9.01793 10.5735 9.11137 10.5388 9.18078 10.4667L12.8915 6.75595C13.0357 6.61179 13.0357 6.3822 12.8942 6.24338Z" fill="#2C7955"/>
</svg>
