<svg width="19" height="19" viewBox="0 0 19 19" fill="none" xmlns="http://www.w3.org/2000/svg">
<path d="M16.4888 7.85096L10.1682 14.1708C9.47036 14.8934 8.5208 15.3191 7.51707 15.3594C6.51334 15.3997 5.53274 15.0514 4.7793 14.387C4.41138 14.0406 4.1168 13.6238 3.91304 13.1614C3.70927 12.6989 3.60046 12.2003 3.59308 11.695C3.5857 11.1898 3.67988 10.6881 3.87005 10.22C4.06022 9.75179 4.3425 9.32659 4.70013 8.96958L10.0835 3.58625C10.5079 3.17415 11.0774 2.94558 11.669 2.94994C12.2606 2.95431 12.8267 3.19125 13.245 3.60956C13.6633 4.02788 13.9003 4.59399 13.9046 5.18557C13.909 5.77714 13.6804 6.34668 13.2683 6.77112L7.885 12.1545C7.74613 12.2863 7.56193 12.3598 7.37042 12.3598C7.17891 12.3598 6.99471 12.2863 6.85584 12.1545C6.72047 12.0174 6.64456 11.8325 6.64456 11.6399C6.64456 11.4472 6.72047 11.2624 6.85584 11.1253L11.1601 6.821C11.3088 6.67151 11.392 6.46908 11.3914 6.25826C11.3908 6.04744 11.3065 5.84549 11.157 5.69683C11.0075 5.54818 10.805 5.465 10.5942 5.46559C10.3834 5.46619 10.1814 5.55051 10.0328 5.7L5.7285 10.0027C5.29549 10.4371 5.05234 11.0254 5.05234 11.6387C5.05234 12.252 5.29549 12.8403 5.7285 13.2747C6.16914 13.6953 6.7549 13.93 7.36409 13.93C7.97327 13.93 8.55903 13.6953 8.99967 13.2747L14.383 7.89133C14.745 7.53634 15.0331 7.11309 15.2305 6.64607C15.4279 6.17905 15.5307 5.67753 15.5331 5.17051C15.5354 4.66348 15.4372 4.16103 15.2442 3.69219C15.0511 3.22336 14.767 2.79746 14.4083 2.43912C14.0496 2.08078 13.6234 1.79712 13.1544 1.60453C12.6854 1.41195 12.1828 1.31427 11.6758 1.31714C11.1688 1.32001 10.6673 1.42338 10.2005 1.62126C9.73371 1.81915 9.31075 2.10762 8.95613 2.47L3.5728 7.85333C3.06549 8.36039 2.6652 8.96419 2.39569 9.6289C2.12617 10.2936 1.99293 11.0057 2.00386 11.7229C2.01478 12.44 2.16966 13.1477 2.4593 13.8039C2.74894 14.4601 3.16744 15.0514 3.68996 15.5428C4.67048 16.454 5.96304 16.9547 7.30155 16.9417C8.79674 16.9412 10.2305 16.3469 11.2876 15.2895L17.6083 8.96879C17.6839 8.89576 17.7442 8.80841 17.7857 8.71182C17.8272 8.61523 17.849 8.51135 17.8499 8.40623C17.8508 8.30112 17.8308 8.19687 17.791 8.09958C17.7512 8.00228 17.6924 7.91389 17.6181 7.83956C17.5437 7.76523 17.4553 7.70645 17.3581 7.66664C17.2608 7.62683 17.1565 7.6068 17.0514 7.60772C16.9463 7.60863 16.8424 7.63047 16.7458 7.67196C16.6492 7.71345 16.5619 7.77376 16.4888 7.84937V7.85096Z" fill="#2C7955"/>
</svg>
