<svg width="19" height="19" viewBox="0 0 19 19" fill="none" xmlns="http://www.w3.org/2000/svg">
<path d="M12.4695 16.0313C12.3523 16.031 12.2362 16.0539 12.1279 16.0987C12.0196 16.1434 11.9211 16.2091 11.8382 16.2919C11.7553 16.3748 11.6896 16.4731 11.6448 16.5815C11.6 16.6898 11.577 16.8058 11.5771 16.923C11.5772 17.0401 11.6004 17.156 11.6453 17.2641C11.6902 17.3722 11.7559 17.4704 11.8388 17.553C11.9217 17.6357 12.0201 17.7012 12.1283 17.7458C12.2365 17.7905 12.3525 17.8133 12.4695 17.8131C12.7054 17.8128 12.9316 17.7189 13.0983 17.552C13.2651 17.3852 13.3588 17.1589 13.359 16.923C13.3591 16.8061 13.3362 16.6902 13.2916 16.5821C13.247 16.474 13.1815 16.3757 13.0989 16.2929C13.0163 16.2101 12.9183 16.1444 12.8103 16.0995C12.7023 16.0546 12.5865 16.0314 12.4695 16.0313Z" fill="#2C7955"/>
<path d="M5.64062 1.1875C5.14857 1.18677 4.74933 1.5855 4.74884 2.07755V2.96933H3.85937C2.39428 2.96933 1.1875 4.17555 1.1875 5.64063V15.1412C1.18749 16.6063 2.3943 17.8125 3.85937 17.8125H9.79572C9.91278 17.8127 10.0287 17.7899 10.137 17.7453C10.2452 17.7006 10.3435 17.6351 10.4264 17.5525C10.5093 17.4698 10.5751 17.3716 10.62 17.2635C10.6649 17.1554 10.688 17.0395 10.6881 16.9225C10.6882 16.8053 10.6653 16.6892 10.6205 16.5809C10.5757 16.4726 10.5099 16.3742 10.427 16.2913C10.3441 16.2085 10.2457 16.1428 10.1374 16.0981C10.029 16.0533 9.91293 16.0304 9.79572 16.0307H3.85937C3.35696 16.0307 2.96933 15.6436 2.96933 15.1412V9.20429H16.0307V15.1412C16.0307 15.6436 15.6436 16.0307 15.1412 16.0307C15.024 16.0304 14.9079 16.0533 14.7996 16.0981C14.6912 16.1428 14.5928 16.2085 14.5099 16.2913C14.427 16.3742 14.3613 16.4726 14.3165 16.5809C14.2717 16.6892 14.2487 16.8053 14.2488 16.9225C14.2489 17.0395 14.2721 17.1554 14.317 17.2635C14.3619 17.3716 14.4276 17.4698 14.5105 17.5525C14.5934 17.6351 14.6918 17.7006 14.8 17.7453C14.9082 17.7899 15.0242 17.8127 15.1412 17.8125C16.6063 17.8125 17.8125 16.6063 17.8125 15.1412V5.64063C17.8125 4.17556 16.6063 2.96933 15.1412 2.96933H14.2488V2.07755C14.2484 1.58635 13.8506 1.18798 13.3594 1.1875C12.8682 1.18798 12.4704 1.58635 12.4699 2.07755V2.96933H6.53068V2.07755C6.5302 1.58635 6.13182 1.18798 5.64062 1.1875ZM3.85937 4.75116H15.1412C15.6436 4.75116 16.0307 5.13819 16.0307 5.64063V7.42245H2.96933V5.64063C2.96933 5.1382 3.35694 4.75116 3.85937 4.75116Z" fill="#2C7955"/>
</svg>
