<svg width="19" height="19" viewBox="0 0 19 19" fill="none" xmlns="http://www.w3.org/2000/svg">
<path d="M3.86027 1.18689C2.39518 1.18689 1.18665 2.39325 1.18665 3.85833V11.5812C1.18662 13.0446 2.39519 14.2504 3.86027 14.2504H4.75002V16.9218C4.75012 17.098 4.80246 17.2702 4.90042 17.4166C4.99837 17.563 5.13755 17.6771 5.30034 17.7444C5.46314 17.8118 5.64224 17.8293 5.815 17.7948C5.98776 17.7604 6.14642 17.6754 6.27092 17.5508L9.57131 14.2504H15.1399C16.605 14.2504 17.8135 13.0441 17.8135 11.579V3.85833C17.8135 2.39325 16.605 1.18689 15.1399 1.18689C15.0229 1.187 14.9071 1.21017 14.7991 1.25506C14.691 1.29995 14.5929 1.36569 14.5103 1.44852C14.4276 1.53135 14.3621 1.62965 14.3175 1.7378C14.2729 1.84595 14.25 1.96183 14.2502 2.07883C14.2504 2.31473 14.3442 2.54091 14.511 2.70772C14.6778 2.87453 14.904 2.96835 15.1399 2.96858C15.6423 2.96858 16.0319 3.3559 16.0319 3.85833V11.579C16.0319 12.0814 15.6423 12.4687 15.1399 12.4687H9.20315C8.96723 12.4689 8.74103 12.5627 8.57418 12.7295L6.53171 14.772V13.3585C6.53158 13.2415 6.50841 13.1257 6.46351 13.0176C6.41862 12.9096 6.35288 12.8115 6.27005 12.7288C6.18722 12.6462 6.08893 12.5807 5.98078 12.5361C5.87264 12.4915 5.75676 12.4686 5.63977 12.4687H3.86027C3.35785 12.4687 2.96832 12.0788 2.96833 11.5812V3.85833C2.96833 3.3559 3.35783 2.96858 3.86027 2.96858H9.79704C10.033 2.96835 10.2591 2.87453 10.4259 2.70772C10.5927 2.54091 10.6866 2.31473 10.6868 2.07883C10.687 1.96183 10.6641 1.84595 10.6195 1.7378C10.5748 1.62965 10.5093 1.53135 10.4267 1.44852C10.3441 1.36569 10.2459 1.29995 10.1379 1.25506C10.0299 1.21017 9.91404 1.187 9.79704 1.18689H3.86027Z" fill="#2C7955"/>
<path d="M12.4685 1.18689C12.3515 1.18701 12.2357 1.21017 12.1276 1.25506C12.0196 1.29995 11.9214 1.36569 11.8388 1.44852C11.7562 1.53135 11.6907 1.62965 11.6461 1.7378C11.6014 1.84595 11.5786 1.96184 11.5787 2.07883C11.579 2.31474 11.6728 2.54091 11.8396 2.70772C12.0064 2.87453 12.2326 2.96835 12.4685 2.96858C12.5855 2.96875 12.7014 2.94587 12.8095 2.90125C12.9177 2.85662 13.016 2.79112 13.0988 2.7085C13.1816 2.62587 13.2474 2.52773 13.2923 2.41969C13.3371 2.31165 13.3603 2.19583 13.3604 2.07883C13.3606 1.96165 13.3376 1.84559 13.2929 1.7373C13.2481 1.629 13.1824 1.53061 13.0996 1.44775C13.0167 1.36489 12.9183 1.2992 12.81 1.25443C12.7017 1.20967 12.5857 1.18672 12.4685 1.18689Z" fill="#2C7955"/>
</svg>
