<svg width="23" height="23" viewBox="0 0 23 23" fill="none" xmlns="http://www.w3.org/2000/svg">
<path d="M11.501 1.43701C5.95641 1.43701 1.43604 5.95472 1.43604 11.4993C1.43604 17.044 5.95641 21.5617 11.501 21.5617C17.0456 21.5617 21.5633 17.044 21.5633 11.4993C21.5633 5.95472 17.0456 1.43701 11.501 1.43701ZM11.501 3.59379C15.8803 3.59379 19.4066 7.12005 19.4066 11.4993C19.4066 15.8786 15.8803 19.4075 11.501 19.4075C7.12172 19.4075 3.59283 15.8786 3.59283 11.4993C3.59283 7.12005 7.12172 3.59379 11.501 3.59379Z" fill="#2C7955"/>
<path d="M11.1404 5.75073C10.5458 5.75132 10.0636 6.23285 10.063 6.82745V11.8601C10.0634 12.1457 10.177 12.4194 10.379 12.6213C10.581 12.8232 10.8548 12.9366 11.1404 12.9368H12.9359C13.0775 12.9371 13.2178 12.9095 13.3488 12.8555C13.4797 12.8015 13.5988 12.7223 13.6991 12.6223C13.7994 12.5223 13.879 12.4035 13.9334 12.2727C13.9878 12.142 14.0159 12.0017 14.0161 11.8601C14.0163 11.7182 13.9885 11.5777 13.9342 11.4466C13.88 11.3155 13.8004 11.1964 13.7001 11.0961C13.5997 10.9958 13.4806 10.9163 13.3494 10.8622C13.2183 10.808 13.0778 10.7803 12.9359 10.7806H12.2199V6.82745C12.2193 6.23182 11.736 5.74985 11.1404 5.75073Z" fill="#2C7955"/>
<path d="M16.1725 10.7805C16.0306 10.7803 15.8901 10.8081 15.7591 10.8623C15.628 10.9165 15.5089 10.996 15.4085 11.0963C15.3082 11.1966 15.2287 11.3157 15.1745 11.4468C15.1204 11.5779 15.0926 11.7184 15.0928 11.8602C15.0929 12.0019 15.121 12.1421 15.1753 12.2729C15.2296 12.4036 15.3092 12.5224 15.4095 12.6225C15.5098 12.7225 15.6287 12.8018 15.7597 12.8558C15.8906 12.9098 16.0309 12.9375 16.1725 12.9373C16.4581 12.937 16.7319 12.8235 16.9338 12.6215C17.1357 12.4196 17.2493 12.1458 17.2496 11.8602C17.2498 11.7186 17.2221 11.5783 17.168 11.4474C17.114 11.3165 17.0347 11.1975 16.9347 11.0972C16.8347 10.997 16.7159 10.9174 16.5851 10.863C16.4543 10.8087 16.3141 10.7807 16.1725 10.7805Z" fill="#2C7955"/>
</svg>
