<svg width="13" height="13" viewBox="0 0 13 13" fill="none" xmlns="http://www.w3.org/2000/svg">
<path d="M7.99976 6.5056L12.259 2.24634C12.4612 2.04454 12.5749 1.77074 12.5751 1.4851C12.5754 1.1995 12.4622 0.925476 12.2604 0.723318C12.0586 0.52116 11.7848 0.40746 11.4992 0.407236C11.2135 0.406967 10.9395 0.520174 10.7373 0.721973L6.47809 4.98123L2.21883 0.721973C2.01672 0.519815 1.74255 0.40625 1.45665 0.40625C1.17078 0.40625 0.89662 0.519815 0.694463 0.721973C0.49235 0.924131 0.378784 1.19829 0.378784 1.48416C0.378784 1.77002 0.49235 2.04418 0.694463 2.24634L4.95372 6.5056L0.694463 10.7649C0.49235 10.967 0.378784 11.2412 0.378784 11.527C0.378784 11.8129 0.49235 12.0871 0.694463 12.2892C0.89662 12.4914 1.17078 12.6049 1.45665 12.6049C1.74255 12.6049 2.01672 12.4914 2.21883 12.2892L6.47809 8.02997L10.7373 12.2892C10.9395 12.4914 11.2137 12.6049 11.4995 12.6049C11.7854 12.6049 12.0596 12.4914 12.2617 12.2892C12.4639 12.0871 12.5774 11.8129 12.5774 11.527C12.5774 11.2412 12.4639 10.967 12.2617 10.7649L7.99976 6.5056Z" fill="#2C7955"/>
</svg>
