<svg width="23" height="23" viewBox="0 0 23 23" fill="none" xmlns="http://www.w3.org/2000/svg">
<path d="M20.1254 20.125C19.8712 20.125 19.6275 20.0241 19.4478 19.8444C19.268 19.6646 19.1671 19.4209 19.1671 19.1667V16.2917C19.1671 15.7834 18.9651 15.2959 18.6057 14.9364C18.2463 14.577 17.7587 14.375 17.2504 14.375H14.3754C14.1149 14.376 13.8573 14.43 13.6184 14.5338C13.3795 14.6376 13.1643 14.789 12.9858 14.9788C12.904 15.0806 12.8023 15.1647 12.6868 15.2258C12.5714 15.2869 12.4446 15.3237 12.3144 15.3341C12.1842 15.3444 12.0533 15.328 11.9296 15.2859C11.806 15.2438 11.6922 15.1768 11.5954 15.0891C11.4986 15.0015 11.4207 14.8949 11.3665 14.7761C11.3124 14.6572 11.2831 14.5285 11.2805 14.3979C11.2779 14.2673 11.302 14.1376 11.3513 14.0166C11.4007 13.8957 11.4742 13.7861 11.5675 13.6946C11.9252 13.3063 12.3592 12.9961 12.8424 12.7833C13.3256 12.5706 13.8475 12.46 14.3754 12.4584H17.2504C18.2671 12.4584 19.2421 12.8622 19.961 13.5811C20.6799 14.3 21.0837 15.275 21.0837 16.2917V19.1667C21.0837 19.4209 20.9828 19.6646 20.8031 19.8444C20.6233 20.0241 20.3796 20.125 20.1254 20.125Z" fill="#2C7955"/>
<path d="M15.8132 11.5C15.1498 11.5 14.5013 11.3032 13.9497 10.9347C13.3981 10.5661 12.9682 10.0423 12.7143 9.42938C12.4604 8.81648 12.394 8.14207 12.5234 7.49143C12.6529 6.84078 12.9723 6.24313 13.4414 5.77404C13.9105 5.30495 14.5081 4.9855 15.1588 4.85608C15.8094 4.72666 16.4838 4.79308 17.0967 5.04695C17.7096 5.30082 18.2335 5.73073 18.602 6.28232C18.9706 6.83391 19.1673 7.4824 19.1673 8.14579C19.1673 9.03537 18.8139 9.88852 18.1849 10.5175C17.5559 11.1466 16.7027 11.5 15.8132 11.5ZM15.8132 6.70829C15.5288 6.70829 15.2509 6.7926 15.0145 6.95056C14.7781 7.10851 14.5939 7.33302 14.4851 7.59569C14.3763 7.85836 14.3478 8.14739 14.4033 8.42624C14.4587 8.70508 14.5956 8.96122 14.7967 9.16226C14.9977 9.3633 15.2539 9.50021 15.5327 9.55567C15.8116 9.61114 16.1006 9.58267 16.3633 9.47387C16.6259 9.36507 16.8504 9.18082 17.0084 8.94443C17.1663 8.70803 17.2507 8.4301 17.2507 8.14579C17.2507 7.76455 17.0992 7.39891 16.8296 7.12933C16.56 6.85974 16.1944 6.70829 15.8132 6.70829Z" fill="#2C7955"/>
<path d="M12.4587 20.125C12.2045 20.125 11.9607 20.024 11.781 19.8443C11.6013 19.6646 11.5003 19.4208 11.5003 19.1667V16.2917C11.5003 15.5292 11.1974 14.7979 10.6583 14.2587C10.1191 13.7196 9.38782 13.4167 8.62533 13.4167H6.70866C5.94616 13.4167 5.21489 13.7196 4.67573 14.2587C4.13656 14.7979 3.83366 15.5292 3.83366 16.2917V19.1667C3.83366 19.4208 3.73269 19.6646 3.55297 19.8443C3.37325 20.024 3.12949 20.125 2.87533 20.125C2.62116 20.125 2.3774 20.024 2.19768 19.8443C2.01796 19.6646 1.91699 19.4208 1.91699 19.1667V16.2917C1.91699 15.0208 2.42183 13.8021 3.32044 12.9034C4.21905 12.0048 5.43783 11.5 6.70866 11.5H8.62533C9.25458 11.5 9.87766 11.6239 10.459 11.8647C11.0404 12.1055 11.5686 12.4585 12.0135 12.9034C12.4585 13.3484 12.8114 13.8766 13.0522 14.458C13.2931 15.0393 13.417 15.6624 13.417 16.2917V19.1667C13.417 19.4208 13.316 19.6646 13.1363 19.8443C12.9566 20.024 12.7128 20.125 12.4587 20.125Z" fill="#2C7955"/>
<path d="M7.66732 10.5417C6.90916 10.5417 6.16802 10.3168 5.53763 9.89564C4.90725 9.47442 4.41592 8.87574 4.12578 8.17529C3.83565 7.47484 3.75973 6.70408 3.90764 5.96049C4.05555 5.2169 4.42064 4.53386 4.95674 3.99776C5.49284 3.46166 6.17588 3.09657 6.91947 2.94866C7.66307 2.80075 8.43382 2.87666 9.13427 3.1668C9.83472 3.45693 10.4334 3.94826 10.8546 4.57865C11.2758 5.20904 11.5007 5.95017 11.5007 6.70834C11.5007 7.725 11.0968 8.70002 10.3779 9.41891C9.65901 10.1378 8.68398 10.5417 7.66732 10.5417ZM7.66732 4.79167C7.28824 4.79167 6.91767 4.90408 6.60248 5.11469C6.28728 5.32529 6.04162 5.62463 5.89655 5.97486C5.75148 6.32508 5.71353 6.71046 5.78748 7.08226C5.86144 7.45406 6.04398 7.79557 6.31203 8.06362C6.58008 8.33167 6.9216 8.51422 7.2934 8.58817C7.66519 8.66213 8.05057 8.62417 8.4008 8.4791C8.75102 8.33404 9.05036 8.08837 9.26097 7.77318C9.47158 7.45798 9.58399 7.08742 9.58399 6.70834C9.58399 6.2 9.38205 5.71249 9.02261 5.35305C8.66316 4.9936 8.17565 4.79167 7.66732 4.79167Z" fill="#2C7955"/>
</svg>
