<svg width="19" height="19" viewBox="0 0 19 19" fill="none" xmlns="http://www.w3.org/2000/svg">
<g clip-path="url(#clip0_49_4021)">
<path d="M8.34406 5.43874C8.16503 5.26105 7.94614 5.1287 7.70562 5.05272C7.4651 4.97674 7.2099 4.95933 6.96128 5.00192C6.71267 5.04452 6.47783 5.1459 6.27632 5.29762C6.07481 5.44934 5.91247 5.647 5.80281 5.87416L0.949889 15.9362C0.833305 16.1776 0.779887 16.4445 0.794636 16.7121C0.809386 16.9797 0.891822 17.2392 1.03422 17.4663C1.17662 17.6933 1.37432 17.8805 1.60881 18.0103C1.84329 18.1401 2.10688 18.2082 2.37489 18.2083C2.61323 18.206 2.84822 18.152 3.06364 18.05L13.1257 13.1971C13.3529 13.0874 13.5505 12.9251 13.7023 12.7236C13.854 12.522 13.9554 12.2872 13.998 12.0386C14.0406 11.79 14.0231 11.5348 13.9472 11.2943C13.8712 11.0537 13.7388 10.8348 13.5611 10.6558L8.34406 5.43874ZM6.95864 14.4162L4.04531 13.1654L5.02697 11.1229L9.65822 13.11L6.95864 14.4162ZM2.37489 16.625L3.35655 14.5983L5.06656 15.3267L2.37489 16.625ZM11.5503 12.1996L5.71572 9.68999L7.22781 6.52332L12.437 11.7325L11.5503 12.1996ZM13.6878 5.31207C13.6136 5.23848 13.5547 5.15092 13.5145 5.05445C13.4743 4.95797 13.4536 4.8545 13.4536 4.74999C13.4536 4.64548 13.4743 4.542 13.5145 4.44553C13.5547 4.34906 13.6136 4.2615 13.6878 4.18791L15.2711 2.60457C15.4202 2.4555 15.6224 2.37175 15.8332 2.37175C16.044 2.37175 16.2462 2.4555 16.3953 2.60457C16.5444 2.75365 16.6281 2.95583 16.6281 3.16666C16.6281 3.37748 16.5444 3.57967 16.3953 3.72874L14.812 5.31207C14.7384 5.38627 14.6508 5.44517 14.5543 5.48536C14.4579 5.52555 14.3544 5.54625 14.2499 5.54625C14.1454 5.54625 14.0419 5.52555 13.9454 5.48536C13.849 5.44517 13.7614 5.38627 13.6878 5.31207ZM18.2082 7.80582C18.2238 7.90993 18.2185 8.0161 18.1926 8.11813C18.1667 8.22016 18.1207 8.316 18.0573 8.40004C17.9939 8.48407 17.9144 8.55462 17.8234 8.60756C17.7324 8.66049 17.6318 8.69475 17.5274 8.70832L14.8199 9.09624H14.7091C14.4991 9.11094 14.2919 9.04162 14.133 8.90355C13.9742 8.76548 13.8767 8.56995 13.862 8.35999C13.8473 8.15003 13.9166 7.94282 14.0547 7.78397C14.1927 7.62511 14.3883 7.5276 14.5982 7.51291L17.3057 7.12499C17.4098 7.10937 17.516 7.11468 17.618 7.14059C17.7201 7.1665 17.8159 7.2125 17.8999 7.2759C17.984 7.33929 18.0545 7.41881 18.1075 7.50981C18.1604 7.6008 18.1946 7.70143 18.2082 7.80582ZM9.91156 4.17999L10.2916 1.47249C10.321 1.26253 10.4325 1.07284 10.6018 0.945159C10.6856 0.881938 10.781 0.835842 10.8827 0.809504C10.9843 0.783166 11.0901 0.777101 11.1941 0.791656C11.298 0.806211 11.3981 0.8411 11.4886 0.894332C11.5791 0.947564 11.6582 1.0181 11.7214 1.1019C11.7846 1.18571 11.8307 1.28114 11.857 1.38276C11.8834 1.48438 11.8894 1.59019 11.8749 1.69416L11.4791 4.40166C11.4522 4.59187 11.357 4.76583 11.2114 4.89109C11.0657 5.01635 10.8795 5.08438 10.6874 5.08249H10.5766C10.4736 5.06702 10.3747 5.03139 10.2855 4.97763C10.1963 4.92388 10.1186 4.85305 10.0568 4.76922C9.99502 4.68538 9.9504 4.59018 9.92548 4.48907C9.90055 4.38796 9.89582 4.28293 9.91156 4.17999Z" fill="#2C7955"/>
</g>
<defs>
<clipPath id="clip0_49_4021">
<rect width="19" height="19" fill="white"/>
</clipPath>
</defs>
</svg>
