<svg width="23" height="23" viewBox="0 0 23 23" fill="none" xmlns="http://www.w3.org/2000/svg">
<path d="M12.4583 11.5H18.2083V9.58333H12.4583V11.5ZM18.2083 11.5V18.2083H20.125V11.5H18.2083ZM18.2083 18.2083H12.4583V20.125H18.2083V18.2083ZM12.4583 18.2083V11.5H10.5417V18.2083H12.4583ZM4.79167 4.79167H7.66667V2.875H4.79167V4.79167ZM7.66667 4.79167V18.2083H9.58333V4.79167H7.66667ZM7.66667 18.2083H4.79167V20.125H7.66667V18.2083ZM4.79167 18.2083V4.79167H2.875V18.2083H4.79167ZM4.79167 18.2083H2.875C2.875 19.2669 3.73312 20.125 4.79167 20.125V18.2083ZM7.66667 18.2083V20.125C8.72521 20.125 9.58333 19.2669 9.58333 18.2083H7.66667ZM7.66667 4.79167H9.58333C9.58333 3.73312 8.72521 2.875 7.66667 2.875V4.79167ZM4.79167 2.875C3.73312 2.875 2.875 3.73312 2.875 4.79167H4.79167V2.875ZM12.4583 4.79167H18.2083V2.875H12.4583V4.79167ZM18.2083 4.79167V6.70833H20.125V4.79167H18.2083ZM18.2083 6.70833H12.4583V8.625H18.2083V6.70833ZM12.4583 6.70833V4.79167H10.5417V6.70833H12.4583ZM12.4583 6.70833H10.5417C10.5417 7.76688 11.3998 8.625 12.4583 8.625V6.70833ZM18.2083 6.70833V8.625C19.2669 8.625 20.125 7.76688 20.125 6.70833H18.2083ZM18.2083 4.79167H20.125C20.125 3.73312 19.2669 2.875 18.2083 2.875V4.79167ZM12.4583 2.875C11.3998 2.875 10.5417 3.73312 10.5417 4.79167H12.4583V2.875ZM12.4583 18.2083H10.5417C10.5417 19.2669 11.3998 20.125 12.4583 20.125V18.2083ZM18.2083 18.2083V20.125C19.2669 20.125 20.125 19.2669 20.125 18.2083H18.2083ZM18.2083 11.5H20.125C20.125 10.4414 19.2669 9.58333 18.2083 9.58333V11.5ZM12.4583 9.58333C11.3998 9.58333 10.5417 10.4414 10.5417 11.5H12.4583V9.58333Z" fill="#2C7955"/>
</svg>
