<svg width="19" height="19" viewBox="0 0 19 19" fill="none" xmlns="http://www.w3.org/2000/svg">
<path d="M9.50116 1.1875C9.00911 1.18677 8.60928 1.5855 8.60879 2.07755V2.96933H2.07813C1.84232 2.96964 1.61626 3.06345 1.44952 3.23019C1.28278 3.39693 1.18897 3.62299 1.18866 3.8588C1.18843 3.9758 1.21126 4.09171 1.25585 4.19989C1.30043 4.30807 1.36589 4.40641 1.4485 4.48928C1.5311 4.57215 1.62922 4.63793 1.73726 4.68287C1.84529 4.7278 1.96112 4.75101 2.07813 4.75116H2.96817V15.1412C2.96817 16.6063 4.17671 17.8125 5.64179 17.8125H13.36C14.825 17.8125 16.0312 16.6063 16.0312 15.1412C16.032 14.6483 15.6324 14.2481 15.1395 14.2488C14.6474 14.2493 14.2493 14.6492 14.25 15.1412C14.25 15.6436 13.8624 16.0307 13.36 16.0307H5.64179C5.13938 16.0307 4.75001 15.6436 4.75001 15.1412V4.75116H14.25V9.79572C14.2493 10.2878 14.6474 10.6876 15.1395 10.6881C15.6324 10.6888 16.032 10.2886 16.0312 9.79572V4.75116H16.9213C17.0385 4.75131 17.1546 4.72833 17.2629 4.68353C17.3712 4.63873 17.4696 4.573 17.5524 4.4901C17.6353 4.4072 17.701 4.30876 17.7457 4.20042C17.7904 4.09209 17.8133 3.976 17.8131 3.8588C17.8128 3.62259 17.7186 3.39618 17.5514 3.22937C17.3842 3.06256 17.1575 2.96902 16.9213 2.96933H10.3906V2.07755C10.3901 1.58635 9.99236 1.18798 9.50116 1.1875Z" fill="#2C7955"/>
<path d="M7.71921 6.53052C7.60203 6.53035 7.48597 6.5533 7.37768 6.59806C7.26938 6.64282 7.17099 6.70852 7.08813 6.79138C7.00527 6.87423 6.93958 6.97263 6.89481 7.08092C6.85005 7.18922 6.8271 7.30528 6.82727 7.42246V13.3592C6.82739 13.4762 6.85055 13.592 6.89544 13.7001C6.94033 13.8081 7.00607 13.9063 7.0889 13.9889C7.17173 14.0715 7.27003 14.137 7.37818 14.1816C7.48633 14.2263 7.60221 14.2491 7.71921 14.249C7.95511 14.2487 8.18129 14.1549 8.3481 13.9881C8.51491 13.8213 8.60873 13.5951 8.60896 13.3592V7.42246C8.60913 7.30546 8.58625 7.18958 8.54163 7.08143C8.497 6.97328 8.4315 6.87498 8.34888 6.79215C8.26625 6.70932 8.16811 6.64358 8.06007 6.59869C7.95203 6.5538 7.83621 6.53063 7.71921 6.53052Z" fill="#2C7955"/>
<path d="M11.2804 6.53052C11.1634 6.53063 11.0476 6.5538 10.9395 6.59869C10.8315 6.64358 10.7333 6.70932 10.6507 6.79215C10.5681 6.87498 10.5026 6.97328 10.458 7.08143C10.4133 7.18958 10.3905 7.30546 10.3906 7.42246V13.3592C10.3909 13.5951 10.4847 13.8213 10.6515 13.9881C10.8183 14.1549 11.0445 14.2487 11.2804 14.249C11.3974 14.2491 11.5133 14.2263 11.6214 14.1816C11.7296 14.137 11.8279 14.0715 11.9107 13.9889C11.9935 13.9063 12.0593 13.8081 12.1041 13.7001C12.149 13.592 12.1722 13.4762 12.1723 13.3592V7.42246C12.1725 7.30528 12.1495 7.18922 12.1048 7.08092C12.06 6.97263 11.9943 6.87423 11.9115 6.79138C11.8286 6.70852 11.7302 6.64282 11.6219 6.59806C11.5136 6.5533 11.3976 6.53035 11.2804 6.53052Z" fill="#2C7955"/>
<path d="M15.1396 11.5775C15.0226 11.5776 14.9068 11.6008 14.7988 11.6457C14.6907 11.6906 14.5926 11.7563 14.51 11.8391C14.4273 11.922 14.3618 12.0203 14.3172 12.1284C14.2726 12.2366 14.2497 12.3525 14.2499 12.4695C14.2501 12.7054 14.3439 12.9315 14.5107 13.0983C14.6775 13.2652 14.9037 13.359 15.1396 13.3592C15.2566 13.3594 15.3725 13.3365 15.4807 13.2919C15.5888 13.2472 15.6871 13.1817 15.7699 13.0991C15.8528 13.0165 15.9185 12.9184 15.9634 12.8103C16.0083 12.7023 16.0315 12.5865 16.0316 12.4695C16.0317 12.3523 16.0088 12.2362 15.964 12.1279C15.9193 12.0196 15.8536 11.9212 15.7707 11.8384C15.6879 11.7555 15.5895 11.6898 15.4812 11.6451C15.3729 11.6003 15.2568 11.5773 15.1396 11.5775Z" fill="#2C7955"/>
</svg>
