<svg width="23" height="23" viewBox="0 0 23 23" fill="none" xmlns="http://www.w3.org/2000/svg">
<path d="M6.10982 1.43774C4.33632 1.43774 2.876 2.89807 2.87598 4.67159V11.8582C2.87577 11.9998 2.90347 12.1401 2.95749 12.271C3.01151 12.4019 3.09079 12.5209 3.19082 12.6212C3.29084 12.7215 3.40963 12.8011 3.54042 12.8554C3.67121 12.9097 3.81142 12.9378 3.95304 12.9379C4.09467 12.9378 4.23488 12.9097 4.36567 12.8554C4.49645 12.8011 4.61525 12.7215 4.71527 12.6212C4.81529 12.5209 4.89458 12.4019 4.9486 12.271C5.00262 12.1401 5.03032 11.9998 5.03011 11.8582V4.67159C5.03011 4.06338 5.50167 3.59452 6.10982 3.59452H13.5697L17.9681 7.99298V18.3285C17.9681 18.9367 17.4993 19.4056 16.8911 19.4056H6.10982C5.50167 19.4056 5.03011 18.9367 5.03011 18.3285C5.03032 18.1869 5.00262 18.0466 4.9486 17.9157C4.89458 17.7848 4.81529 17.6658 4.71527 17.5655C4.61525 17.4653 4.49645 17.3857 4.36567 17.3314C4.23488 17.277 4.09467 17.249 3.95304 17.2488C3.81142 17.249 3.67121 17.277 3.54042 17.3314C3.40963 17.3857 3.29084 17.4653 3.19082 17.5655C3.09079 17.6658 3.01151 17.7848 2.95749 17.9157C2.90347 18.0466 2.87577 18.1869 2.87598 18.3285C2.87598 20.1021 4.33632 21.5624 6.10982 21.5624H16.8911C18.6646 21.5624 20.1249 20.1021 20.1249 18.3285V7.5473C20.1251 7.40544 20.0974 7.26493 20.0432 7.13383C19.989 7.00272 19.9095 6.88359 19.8092 6.78327L14.7767 1.75344C14.5748 1.55153 14.3009 1.43799 14.0154 1.43774H6.10982Z" fill="#2C7955"/>
<path d="M3.95304 14.0149C3.81142 14.015 3.67121 14.0431 3.54042 14.0974C3.40963 14.1518 3.29084 14.2313 3.19082 14.3316C3.09079 14.4319 3.01151 14.5509 2.95749 14.6818C2.90347 14.8127 2.87577 14.953 2.87598 15.0946C2.87626 15.3802 2.98982 15.654 3.19175 15.8559C3.39368 16.0578 3.66747 16.1714 3.95304 16.1717C4.23861 16.1714 4.5124 16.0578 4.71433 15.8559C4.91626 15.654 5.02983 15.3802 5.03011 15.0946C5.03032 14.953 5.00262 14.8127 4.9486 14.6818C4.89458 14.5509 4.81529 14.4319 4.71527 14.3316C4.61525 14.2313 4.49645 14.1518 4.36567 14.0974C4.23488 14.0431 4.09467 14.015 3.95304 14.0149Z" fill="#2C7955"/>
</svg>
