<svg width="17" height="17" viewBox="0 0 17 17" fill="none" xmlns="http://www.w3.org/2000/svg">
<g clip-path="url(#clip0_550_424)">
<path d="M17 15.9375C17 16.5243 16.5243 17 15.9375 17H1.0625C0.475701 17 0 16.5243 0 15.9375C0 15.3507 0.475701 14.875 1.0625 14.875H15.9375C16.5243 14.875 17 15.3507 17 15.9375ZM7.74871 12.5716C7.9562 12.7791 8.22807 12.8828 8.5 12.8828C8.77187 12.8828 9.04387 12.7791 9.25129 12.5716L13.0158 8.80716C13.4307 8.39222 13.4307 7.71949 13.0158 7.30455C12.6009 6.88962 11.9281 6.88962 11.5132 7.30455L9.5625 9.25524V1.0625C9.5625 0.475701 9.0868 0 8.5 0C7.9132 0 7.4375 0.475701 7.4375 1.0625V9.25524L5.48682 7.30455C5.07188 6.88962 4.39915 6.88962 3.98421 7.30455C3.56927 7.71949 3.56927 8.39222 3.98421 8.80716L7.74871 12.5716Z" fill="#2C7955"/>
</g>
<defs>
<clipPath id="clip0_550_424">
<rect width="17" height="17" fill="white"/>
</clipPath>
</defs>
</svg>
