<svg width="111" height="111" viewBox="0 0 111 111" fill="none" xmlns="http://www.w3.org/2000/svg">
<circle cx="55.5" cy="55.5" r="55.5" fill="#F26C6D" fill-opacity="0.11"/>
<path d="M79.0091 76.6631C91.3558 64.3164 91.3558 44.2986 79.0091 31.9519C66.6625 19.6053 46.6446 19.6053 34.298 31.9519C21.9513 44.2986 21.9513 64.3164 34.298 76.6631C46.6446 89.0097 66.6625 89.0097 79.0091 76.6631Z" fill="#F26C6D"/>
<path d="M56.6526 86.563C38.8146 86.563 24.3711 72.0529 24.3711 54.2815C24.3711 36.51 38.8811 22 56.6526 22C74.4906 22 88.934 36.51 88.934 54.2815C89.0006 72.1195 74.4906 86.563 56.6526 86.563ZM56.6526 23.3312C39.6133 23.3312 25.7023 37.2422 25.7023 54.2815C25.7023 71.3873 39.6133 85.2318 56.6526 85.2318C73.6919 85.2318 87.6029 71.3208 87.6029 54.2815C87.6694 37.2422 73.7584 23.3312 56.6526 23.3312Z" fill="white"/>
<path d="M53.4579 89.6912C38.4154 89.6912 25.17 79.0417 22.0417 64.332C21.9752 64.0657 22.1748 63.7995 22.4411 63.7329C22.7073 63.6664 22.9736 63.8661 23.0401 64.1323C26.1019 78.3761 38.8813 88.7594 53.4579 88.7594C56.7859 88.7594 59.9808 88.2269 63.1091 87.2285C63.3753 87.162 63.6416 87.2951 63.7081 87.5613C63.7747 87.8276 63.6416 88.0938 63.3753 88.1604C60.1805 89.1588 56.8525 89.6912 53.4579 89.6912ZM74.6239 81.5044C74.4908 81.5044 74.3577 81.4378 74.2246 81.3713C74.0249 81.1716 74.0249 80.8388 74.2911 80.6391C80.814 74.7153 84.6079 66.3288 84.6079 57.5429V57.4098C84.6079 57.1435 84.8076 56.8773 85.1404 56.8773C85.4732 56.8773 85.6728 57.077 85.6728 57.4098V57.5429C85.6728 66.595 81.8124 75.3143 75.0233 81.4378C74.8236 81.5044 74.757 81.5044 74.6239 81.5044ZM21.842 58.0754C21.5758 58.0754 21.3096 57.8757 21.3096 57.6095V57.5429C21.3096 48.4908 25.17 39.838 31.8926 33.7145C32.0923 33.5148 32.425 33.5148 32.6247 33.7811C32.8244 33.9807 32.8244 34.3135 32.5582 34.5132C26.0353 40.437 22.308 48.8236 22.308 57.6095C22.308 57.8091 22.1083 58.0754 21.842 58.0754ZM84.3417 51.3528C84.142 51.3528 83.8757 51.2197 83.8757 50.9535C80.814 36.7097 68.0345 26.3929 53.4579 26.3929C50.1299 26.3929 46.8685 26.9254 43.7402 27.9238C43.474 27.9904 43.2077 27.8572 43.1412 27.591C43.0746 27.3248 43.2077 27.0585 43.474 26.992C46.6688 25.927 50.0634 25.3945 53.5245 25.3945C68.567 25.3945 81.7458 36.0441 84.9407 50.6872C85.0072 50.9535 84.8076 51.2197 84.5413 51.2863C84.4082 51.3528 84.4082 51.3528 84.3417 51.3528Z" fill="white"/>
<path d="M71.8287 45.2293L66.9699 40.3705L56.4534 50.8869L45.937 40.3705L41.0781 45.2293L51.5946 55.7458L41.0781 66.2622L45.937 71.1211L56.4534 60.6046L66.9699 71.1211L71.8287 66.2622L61.3123 55.7458L71.8287 45.2293Z" fill="white"/>
<path d="M66.9695 72.3192L56.4531 61.7362L45.9367 72.3192L39.9463 66.3288L50.4627 55.8124L39.9463 45.2294L45.9367 39.239L56.4531 49.7555L66.9695 39.239L72.9599 45.2294L62.4435 55.7458L72.9599 66.2623L66.9695 72.3192ZM56.4531 59.4732L66.9695 69.9896L70.6969 66.2623L60.1805 55.7458L70.6969 45.2294L66.9695 41.502L56.4531 52.085L45.9367 41.502L42.2093 45.2294L52.7258 55.7458L42.2093 66.2623L45.9367 69.9896L56.4531 59.4732Z" fill="white"/>
</svg>
