<svg width="23" height="23" viewBox="0 0 23 23" fill="none" xmlns="http://www.w3.org/2000/svg">
<path d="M14.3747 8.62504H4.79134C3.77468 8.62504 2.79965 8.22117 2.08077 7.50228C1.36188 6.78339 0.958008 5.80837 0.958008 4.79171C0.958008 3.77504 1.36188 2.80002 2.08077 2.08113C2.79965 1.36224 3.77468 0.958374 4.79134 0.958374H13.4163C13.9245 0.959033 14.4116 1.16118 14.7709 1.52048C15.1302 1.87978 15.3323 2.36691 15.333 2.87504V4.79171C15.333 5.04587 15.232 5.28963 15.0523 5.46935C14.8726 5.64907 14.6288 5.75004 14.3747 5.75004C14.1205 5.75004 13.8768 5.64907 13.697 5.46935C13.5173 5.28963 13.4163 5.04587 13.4163 4.79171V2.87504H4.79134C4.28301 2.87504 3.7955 3.07697 3.43605 3.43642C3.07661 3.79586 2.87467 4.28338 2.87467 4.79171C2.87467 5.30004 3.07661 5.78755 3.43605 6.147C3.7955 6.50644 4.28301 6.70837 4.79134 6.70837H14.3747C14.6288 6.70837 14.8726 6.80934 15.0523 6.98906C15.232 7.16879 15.333 7.41254 15.333 7.66671C15.333 7.92087 15.232 8.16463 15.0523 8.34435C14.8726 8.52407 14.6288 8.62504 14.3747 8.62504Z" fill="#2C7955"/>
<path d="M16.7705 21.0834H4.79134C3.77499 21.0824 2.80056 20.6782 2.08189 19.9595C1.36322 19.2408 0.959023 18.2664 0.958008 17.25V4.79171C0.958008 4.53754 1.05897 4.29379 1.2387 4.11406C1.41842 3.93434 1.66218 3.83337 1.91634 3.83337C2.17051 3.83337 2.41426 3.93434 2.59399 4.11406C2.77371 4.29379 2.87467 4.53754 2.87467 4.79171C2.87533 5.29984 3.07748 5.78697 3.43678 6.14627C3.79608 6.50557 4.28321 6.70771 4.79134 6.70837H16.7705C17.6598 6.70945 18.5123 7.06318 19.1411 7.69197C19.7699 8.32077 20.1236 9.17329 20.1247 10.0625V11.5C20.1247 11.7542 20.0237 11.998 19.844 12.1777C19.6643 12.3574 19.4205 12.4584 19.1663 12.4584C18.9122 12.4584 18.6684 12.3574 18.4887 12.1777C18.309 11.998 18.208 11.7542 18.208 11.5V10.0625C18.2076 9.68142 18.056 9.31603 17.7865 9.04653C17.517 8.77704 17.1516 8.62546 16.7705 8.62504H4.79134C4.11818 8.62593 3.45682 8.44832 2.87467 8.11031V17.25C2.87533 17.7582 3.07748 18.2453 3.43678 18.6046C3.79608 18.9639 4.28321 19.166 4.79134 19.1667H16.7705C17.1516 19.1663 17.517 19.0147 17.7865 18.7452C18.056 18.4757 18.2076 18.1103 18.208 17.7292V16.2917C18.208 16.0375 18.309 15.7938 18.4887 15.6141C18.6684 15.4343 18.9122 15.3334 19.1663 15.3334C19.4205 15.3334 19.6643 15.4343 19.844 15.6141C20.0237 15.7938 20.1247 16.0375 20.1247 16.2917V17.7292C20.1236 18.6185 19.7699 19.471 19.1411 20.0998C18.5123 20.7286 17.6598 21.0823 16.7705 21.0834Z" fill="#2C7955"/>
<path d="M16.291 8.62504H5.74935C5.62348 8.62511 5.49883 8.60037 5.38253 8.55224C5.26622 8.5041 5.16055 8.43351 5.07154 8.34451C4.98254 8.25551 4.91195 8.14983 4.86382 8.03353C4.81568 7.91723 4.79094 7.79258 4.79102 7.66671V5.75004C4.79168 5.24191 4.99382 4.75478 5.35312 4.39548C5.71242 4.03618 6.19955 3.83403 6.70768 3.83337H15.3327C15.8408 3.83403 16.3279 4.03618 16.6872 4.39548C17.0465 4.75478 17.2487 5.24191 17.2493 5.75004V7.66671C17.2494 7.79258 17.2247 7.91723 17.1765 8.03353C17.1284 8.14983 17.0578 8.25551 16.9688 8.34451C16.8798 8.43351 16.7741 8.5041 16.6578 8.55224C16.5415 8.60037 16.4169 8.62511 16.291 8.62504ZM6.70768 6.70837H15.3327V5.75004H6.70768V6.70837Z" fill="#2C7955"/>
<path d="M19.6455 17.2501H15.8122C14.9226 17.2501 14.0694 16.8967 13.4404 16.2677C12.8114 15.6386 12.458 14.7855 12.458 13.8959C12.458 13.0063 12.8114 12.1532 13.4404 11.5242C14.0694 10.8951 14.9226 10.5417 15.8122 10.5417H19.6455C20.2807 10.5423 20.8898 10.7949 21.339 11.2441C21.7881 11.6933 22.0408 12.3023 22.0413 12.9376V14.8542C22.0408 15.4895 21.7881 16.0985 21.339 16.5477C20.8898 16.9969 20.2807 17.2495 19.6455 17.2501ZM15.8122 12.4584C15.4309 12.4584 15.0653 12.6099 14.7957 12.8794C14.5261 13.149 14.3747 13.5147 14.3747 13.8959C14.3747 14.2772 14.5261 14.6428 14.7957 14.9124C15.0653 15.182 15.4309 15.3334 15.8122 15.3334H19.6455C19.7725 15.3332 19.8942 15.2826 19.9841 15.1928C20.0739 15.103 20.1244 14.9813 20.1247 14.8542V12.9376C20.1244 12.8106 20.0739 12.6888 19.9841 12.599C19.8942 12.5092 19.7725 12.4587 19.6455 12.4584H15.8122Z" fill="#2C7955"/>
</svg>
