<svg width="23" height="23" viewBox="0 0 23 23" fill="none" xmlns="http://www.w3.org/2000/svg">
<path d="M16.2917 22.0417H6.70833C5.69198 22.0407 4.71755 21.6365 3.99888 20.9178C3.28021 20.1992 2.87601 19.2247 2.875 18.2084V4.79171C2.87601 3.77536 3.28021 2.80092 3.99888 2.08225C4.71755 1.36358 5.69198 0.959389 6.70833 0.958374H14.1429C15.159 0.961099 16.133 1.36468 16.8532 2.08143L19.002 4.23018C19.7187 4.95041 20.1223 5.92438 20.125 6.94047V18.2084C20.124 19.2247 19.7198 20.1992 19.0011 20.9178C18.2825 21.6365 17.308 22.0407 16.2917 22.0417ZM6.70833 2.87504C6.2002 2.8757 5.71308 3.07785 5.35377 3.43715C4.99447 3.79645 4.79233 4.28358 4.79167 4.79171V18.2084C4.79233 18.7165 4.99447 19.2036 5.35377 19.5629C5.71308 19.9222 6.2002 20.1244 6.70833 20.125H16.2917C16.7998 20.1244 17.2869 19.9222 17.6462 19.5629C18.0055 19.2036 18.2077 18.7165 18.2083 18.2084V6.94047C18.2068 6.43247 18.005 5.94557 17.6468 5.58533L15.4981 3.43657C15.1378 3.07838 14.6509 2.87662 14.1429 2.87504H6.70833Z" fill="#2C7955"/>
<path d="M16.5097 7.66671C15.6897 7.66566 14.9036 7.33945 14.3237 6.75961C13.7439 6.17978 13.4177 5.39366 13.4166 4.57365V2.01217C13.4166 1.758 13.5176 1.51424 13.6973 1.33452C13.877 1.1548 14.1208 1.05383 14.375 1.05383C14.6291 1.05383 14.8729 1.1548 15.0526 1.33452C15.2323 1.51424 15.3333 1.758 15.3333 2.01217V4.57365C15.3337 4.88553 15.4577 5.18452 15.6783 5.40505C15.8988 5.62559 16.1978 5.74965 16.5097 5.75004C16.7638 5.75004 17.0076 5.85101 17.1873 6.03073C17.3671 6.21045 17.468 6.45421 17.468 6.70837C17.468 6.96254 17.3671 7.20629 17.1873 7.38602C17.0076 7.56574 16.7638 7.66671 16.5097 7.66671Z" fill="#2C7955"/>
<path d="M15.3334 14.375H7.66671C7.41254 14.375 7.16879 14.2741 6.98906 14.0944C6.80934 13.9146 6.70837 13.6709 6.70837 13.4167C6.70837 13.1625 6.80934 12.9188 6.98906 12.7391C7.16879 12.5593 7.41254 12.4584 7.66671 12.4584H15.3334C15.5875 12.4584 15.8313 12.5593 16.011 12.7391C16.1907 12.9188 16.2917 13.1625 16.2917 13.4167C16.2917 13.6709 16.1907 13.9146 16.011 14.0944C15.8313 14.2741 15.5875 14.375 15.3334 14.375Z" fill="#2C7955"/>
<path d="M15.3334 10.5418H7.66671C7.41254 10.5418 7.16879 10.4408 6.98906 10.2611C6.80934 10.0814 6.70837 9.83762 6.70837 9.58346C6.70837 9.32929 6.80934 9.08553 6.98906 8.90581C7.16879 8.72609 7.41254 8.62512 7.66671 8.62512H15.3334C15.5875 8.62512 15.8313 8.72609 16.011 8.90581C16.1907 9.08553 16.2917 9.32929 16.2917 9.58346C16.2917 9.83762 16.1907 10.0814 16.011 10.2611C15.8313 10.4408 15.5875 10.5418 15.3334 10.5418Z" fill="#2C7955"/>
<path d="M11.5 6.70841H7.66671C7.41254 6.70841 7.16879 6.60745 6.98906 6.42773C6.80934 6.248 6.70837 6.00425 6.70837 5.75008C6.70837 5.49592 6.80934 5.25216 6.98906 5.07244C7.16879 4.89272 7.41254 4.79175 7.66671 4.79175H11.5C11.7542 4.79175 11.998 4.89272 12.1777 5.07244C12.3574 5.25216 12.4584 5.49592 12.4584 5.75008C12.4584 6.00425 12.3574 6.248 12.1777 6.42773C11.998 6.60745 11.7542 6.70841 11.5 6.70841Z" fill="#2C7955"/>
<path d="M15.3334 18.2084H7.66671C7.41254 18.2084 7.16879 18.1074 6.98906 17.9277C6.80934 17.748 6.70837 17.5042 6.70837 17.2501C6.70837 16.9959 6.80934 16.7522 6.98906 16.5724C7.16879 16.3927 7.41254 16.2917 7.66671 16.2917H15.3334C15.5875 16.2917 15.8313 16.3927 16.011 16.5724C16.1907 16.7522 16.2917 16.9959 16.2917 17.2501C16.2917 17.5042 16.1907 17.748 16.011 17.9277C15.8313 18.1074 15.5875 18.2084 15.3334 18.2084Z" fill="#2C7955"/>
</svg>
