<svg width="19" height="19" viewBox="0 0 19 19" fill="none" xmlns="http://www.w3.org/2000/svg">
<path fill-rule="evenodd" clip-rule="evenodd" d="M12.1775 2.39054C12.0045 2.37576 11.7739 2.37508 11.4 2.37508H8.70833V5.54175C8.70833 6.4162 7.99948 7.12508 7.125 7.12508H3.95833V12.8884C3.95833 13.2778 3.9589 13.5243 3.97346 13.7107C3.98737 13.8889 4.01036 13.9433 4.01862 13.9603C4.07092 14.0676 4.15102 14.1482 4.24148 14.1965C4.24669 14.1993 4.2871 14.2209 4.44748 14.2346C4.62047 14.2494 4.8511 14.2501 5.225 14.2501H11.4C11.7739 14.2501 12.0045 14.2494 12.1775 14.2346C12.3379 14.2209 12.3781 14.1993 12.3833 14.1966C12.4738 14.1484 12.5541 14.0676 12.6064 13.9603C12.6147 13.9433 12.6376 13.8889 12.6515 13.7107C12.6661 13.5243 12.6667 13.2778 12.6667 12.8884V3.73675C12.6667 3.34739 12.6661 3.10089 12.6515 2.91445C12.6376 2.73626 12.6147 2.68186 12.6064 2.6649C12.5541 2.55754 12.474 2.47694 12.3835 2.42872C12.3783 2.42592 12.3379 2.40426 12.1775 2.39054ZM2.67534 5.71263C2.49237 5.85763 2.375 6.08182 2.375 6.33342V12.9169C2.37499 13.2694 2.37498 13.5784 2.39494 13.834C2.41607 14.1047 2.46319 14.3826 2.59515 14.6536C2.78953 15.0527 3.10303 15.3838 3.4967 15.5937C3.76758 15.7381 4.04624 15.7894 4.31264 15.8122C4.56124 15.8334 4.86045 15.8334 5.19486 15.8334H11.4302C11.7646 15.8334 12.0637 15.8334 12.3124 15.8122C12.5788 15.7894 12.8575 15.7381 13.1283 15.5937C13.522 15.3838 13.8355 15.0527 14.0298 14.6536C14.1618 14.3826 14.2089 14.1047 14.2301 13.834C14.25 13.5784 14.25 13.2694 14.25 12.9169V3.70827C14.25 3.35575 14.25 3.04672 14.2301 2.79117C14.2089 2.52052 14.1618 2.24254 14.0298 1.97161C13.8355 1.57251 13.522 1.24133 13.1283 1.03149C12.8575 0.887097 12.5788 0.835734 12.3124 0.812966C12.0637 0.791714 11.7646 0.791731 11.4302 0.791749H7.91667C7.66508 0.791749 7.44089 0.909114 7.29588 1.09208C7.27049 1.11255 7.24574 1.13476 7.22173 1.15877L2.74203 5.63847C2.71801 5.66249 2.6958 5.68724 2.67534 5.71263ZM5.07792 5.54175H7.125V3.49467L5.07792 5.54175ZM15.8333 3.16675C16.2706 3.16675 16.625 3.52119 16.625 3.95842V14.8986C16.625 15.3229 16.625 15.689 16.6 15.9904C16.5736 16.3086 16.5152 16.6248 16.3576 16.9282C16.1323 17.362 15.7786 17.7157 15.3448 17.941C15.0414 18.0986 14.7252 18.157 14.407 18.1834C14.1056 18.2084 13.7395 18.2084 13.3152 18.2084H5.54167C5.10445 18.2084 4.75 17.854 4.75 17.4167C4.75 16.9795 5.10445 16.6251 5.54167 16.6251H13.2842C13.7483 16.6251 14.048 16.6244 14.276 16.6055C14.4945 16.5874 14.5752 16.5566 14.615 16.5359C14.7595 16.4608 14.8774 16.3429 14.9525 16.1984C14.9732 16.1586 15.004 16.0779 15.0221 15.8594C15.041 15.6314 15.0417 15.3317 15.0417 14.8676V3.95842C15.0417 3.52119 15.3961 3.16675 15.8333 3.16675Z" fill="#2C7955"/>
</svg>
