<svg width="19" height="19" viewBox="0 0 19 19" fill="none" xmlns="http://www.w3.org/2000/svg">
<path d="M3.86004 2.37524C2.39495 2.37524 1.1886 3.5816 1.1886 5.04668V13.9529C1.18858 15.418 2.39495 16.6244 3.86004 16.6244H9.7968C10.0327 16.6241 10.2589 16.5303 10.4257 16.3635C10.5925 16.1967 10.6863 15.9705 10.6865 15.7346C10.6863 15.4987 10.5925 15.2725 10.4257 15.1057C10.2589 14.9389 10.0327 14.8451 9.7968 14.8449H3.86004C3.35761 14.8449 2.96809 14.4553 2.9681 13.9529V5.04668C2.9681 4.54425 3.35759 4.15693 3.86004 4.15693H6.97634L8.49067 6.1753C8.57373 6.28565 8.68132 6.37517 8.80493 6.43678C8.92855 6.4984 9.06479 6.53042 9.20291 6.53033H15.1397C15.6421 6.53033 16.0316 6.91984 16.0316 7.42227V13.9529C16.0316 14.4554 15.6421 14.8449 15.1397 14.8449C14.9038 14.8451 14.6776 14.9389 14.5108 15.1057C14.344 15.2725 14.2502 15.4987 14.2499 15.7346C14.2502 15.9705 14.344 16.1967 14.5108 16.3635C14.6776 16.5303 14.9038 16.6241 15.1397 16.6244C16.6048 16.6244 17.8133 15.418 17.8133 13.9529V7.42227C17.8133 5.95719 16.6048 4.75083 15.1397 4.75083H9.64778L8.13345 2.73027C8.05039 2.61992 7.9428 2.53041 7.81919 2.46879C7.69558 2.40718 7.55934 2.37515 7.42122 2.37524H3.86004Z" fill="#2C7955"/>
<path d="M12.4682 14.845C12.2323 14.8452 12.0062 14.939 11.8393 15.1058C11.6725 15.2726 11.5787 15.4988 11.5785 15.7347C11.5787 15.9706 11.6725 16.1968 11.8393 16.3636C12.0062 16.5304 12.2323 16.6242 12.4682 16.6245C12.5852 16.6246 12.7011 16.6018 12.8093 16.5571C12.9174 16.5125 13.0157 16.447 13.0985 16.3644C13.1814 16.2818 13.2471 16.1836 13.292 16.0756C13.3369 15.9675 13.3601 15.8517 13.3602 15.7347C13.3601 15.6177 13.3369 15.5019 13.292 15.3939C13.2471 15.2858 13.1814 15.1877 13.0985 15.1051C13.0157 15.0224 12.9174 14.9569 12.8093 14.9123C12.7011 14.8677 12.5852 14.8448 12.4682 14.845Z" fill="#2C7955"/>
</svg>
