<svg width="47" height="47" viewBox="0 0 47 47" fill="none" xmlns="http://www.w3.org/2000/svg">
<g clip-path="url(#clip0_3794_132)">
<path d="M23.5 46.2656C36.0731 46.2656 46.2656 36.0731 46.2656 23.5C46.2656 10.9269 36.0731 0.734375 23.5 0.734375C10.9269 0.734375 0.734375 10.9269 0.734375 23.5C0.734375 36.0731 10.9269 46.2656 23.5 46.2656Z" fill="#E1EAE6"/>
<path d="M41.7689 37.0674C39.6457 34.2249 36.8887 31.9167 33.7171 30.3263C30.5455 28.736 27.0466 27.9074 23.4986 27.9063C19.9506 27.9051 16.4513 28.7316 13.2787 30.3199C10.1061 31.9083 7.34765 34.2147 5.22266 37.056C7.33685 39.9116 10.0908 42.2322 13.2636 43.8315C16.4364 45.4309 19.9398 46.2645 23.4929 46.2657C27.046 46.2668 30.5499 45.4353 33.7238 43.838C36.8976 42.2406 39.6529 39.9218 41.7689 37.0674Z" fill="#F7F7F7"/>
<path d="M23.5 24.9688C28.367 24.9688 32.3125 21.0233 32.3125 16.1562C32.3125 11.2892 28.367 7.34375 23.5 7.34375C18.633 7.34375 14.6875 11.2892 14.6875 16.1562C14.6875 21.0233 18.633 24.9688 23.5 24.9688Z" fill="#F7F7F7"/>
</g>
<circle cx="23.5" cy="23.5" r="22.5" stroke="#BCC3C0" stroke-width="2"/>
<defs>
<clipPath id="clip0_3794_132">
<rect width="47" height="47" fill="white"/>
</clipPath>
</defs>
</svg>
