<svg width="252" height="96" viewBox="0 0 252 96" fill="none" xmlns="http://www.w3.org/2000/svg">
<g filter="url(#filter0_d_3786_133)">
<rect x="7" y="4" width="190" height="50" rx="15" fill="white"/>
</g>
<rect x="58" y="15" width="37" height="6" rx="3" fill="#BCC3C0"/>
<rect x="96" y="15" width="11" height="6" rx="3" fill="#BCC3C0"/>
<rect x="58" y="27" width="125" height="5" rx="2.5" fill="#E1EAE6"/>
<rect x="58" y="38" width="101" height="5" rx="2.5" fill="#E1EAE6"/>
<rect x="163" y="38" width="13" height="5" rx="2.5" fill="#BCC3C0"/>
<circle cx="33.5" cy="29.5" r="14.5" fill="#F7F7F7" stroke="#BCC3C0" stroke-width="2"/>
<g filter="url(#filter1_d_3786_133)">
<rect x="55" y="36" width="190" height="50" rx="15" fill="white"/>
</g>
<rect x="106" y="47" width="37" height="6" rx="3" fill="#BCC3C0"/>
<rect x="144" y="47" width="11" height="6" rx="3" fill="#BCC3C0"/>
<rect x="106" y="59" width="125" height="5" rx="2.5" fill="#E1EAE6"/>
<rect x="106" y="70" width="101" height="5" rx="2.5" fill="#E1EAE6"/>
<rect x="211" y="70" width="13" height="5" rx="2.5" fill="#BCC3C0"/>
<circle cx="81.5" cy="61.5" r="14.5" fill="#F7F7F7" stroke="#BCC3C0" stroke-width="2"/>
<defs>
<filter id="filter0_d_3786_133" x="0" y="0" width="204" height="64" filterUnits="userSpaceOnUse" color-interpolation-filters="sRGB">
<feFlood flood-opacity="0" result="BackgroundImageFix"/>
<feColorMatrix in="SourceAlpha" type="matrix" values="0 0 0 0 0 0 0 0 0 0 0 0 0 0 0 0 0 0 127 0" result="hardAlpha"/>
<feOffset dy="3"/>
<feGaussianBlur stdDeviation="3.5"/>
<feComposite in2="hardAlpha" operator="out"/>
<feColorMatrix type="matrix" values="0 0 0 0 0.364706 0 0 0 0 0.364706 0 0 0 0 0.407843 0 0 0 0.11 0"/>
<feBlend mode="normal" in2="BackgroundImageFix" result="effect1_dropShadow_3786_133"/>
<feBlend mode="normal" in="SourceGraphic" in2="effect1_dropShadow_3786_133" result="shape"/>
</filter>
<filter id="filter1_d_3786_133" x="48" y="32" width="204" height="64" filterUnits="userSpaceOnUse" color-interpolation-filters="sRGB">
<feFlood flood-opacity="0" result="BackgroundImageFix"/>
<feColorMatrix in="SourceAlpha" type="matrix" values="0 0 0 0 0 0 0 0 0 0 0 0 0 0 0 0 0 0 127 0" result="hardAlpha"/>
<feOffset dy="3"/>
<feGaussianBlur stdDeviation="3.5"/>
<feComposite in2="hardAlpha" operator="out"/>
<feColorMatrix type="matrix" values="0 0 0 0 0.364706 0 0 0 0 0.364706 0 0 0 0 0.407843 0 0 0 0.11 0"/>
<feBlend mode="normal" in2="BackgroundImageFix" result="effect1_dropShadow_3786_133"/>
<feBlend mode="normal" in="SourceGraphic" in2="effect1_dropShadow_3786_133" result="shape"/>
</filter>
</defs>
</svg>
