<svg width="19" height="19" viewBox="0 0 19 19" fill="none" xmlns="http://www.w3.org/2000/svg">
<g clip-path="url(#clip0_1_738)">
<path d="M5.9375 9.5C7.57447 9.5 8.90625 8.16822 8.90625 6.53125C8.90625 4.89428 7.57447 3.5625 5.9375 3.5625C4.30053 3.5625 2.96875 4.89428 2.96875 6.53125C2.96875 8.16822 4.30053 9.5 5.9375 9.5ZM5.9375 5.04688C6.75598 5.04688 7.42188 5.71277 7.42188 6.53125C7.42188 7.34973 6.75598 8.01562 5.9375 8.01562C5.11902 8.01562 4.45312 7.34973 4.45312 6.53125C4.45312 5.71277 5.11902 5.04688 5.9375 5.04688ZM13.0625 6.53125C14.6995 6.53125 16.0312 5.19947 16.0312 3.5625C16.0312 1.92553 14.6995 0.59375 13.0625 0.59375C11.4255 0.59375 10.0938 1.92553 10.0938 3.5625C10.0938 5.19947 11.4255 6.53125 13.0625 6.53125ZM13.0625 2.07812C13.881 2.07812 14.5469 2.74402 14.5469 3.5625C14.5469 4.38098 13.881 5.04688 13.0625 5.04688C12.244 5.04688 11.5781 4.38098 11.5781 3.5625C11.5781 2.74402 12.244 2.07812 13.0625 2.07812ZM13.0625 8.01562C11.7131 8.01562 10.3919 8.48072 9.34243 9.32525C9.02311 9.58223 8.97256 10.0494 9.22955 10.3688C9.48653 10.6881 9.95374 10.7386 10.2731 10.4817C11.0711 9.83944 12.0357 9.5 13.0625 9.5C15.518 9.5 17.5156 11.4977 17.5156 13.9531H13.4962C13.0863 13.9531 12.754 14.2854 12.754 14.6953C12.754 15.1052 13.0863 15.4375 13.4962 15.4375H18.2578C18.6677 15.4375 19 15.1052 19 14.6953V13.9531C19 10.6792 16.3365 8.01562 13.0625 8.01562ZM5.93754 10.9844C2.66356 10.9844 0 13.6479 0 16.9219V17.6641C0 18.074 0.332277 18.4062 0.742188 18.4062H11.1328C11.5427 18.4062 11.875 18.074 11.875 17.6641V16.9219C11.875 13.6479 9.21147 10.9844 5.93754 10.9844ZM1.48438 16.9219C1.48438 14.4664 3.48205 12.4688 5.93754 12.4688C8.39299 12.4688 10.3906 14.4664 10.3906 16.9219H1.48438Z" fill="#2C7955"/>
</g>
<defs>
<clipPath id="clip0_1_738">
<rect width="19" height="19" fill="white"/>
</clipPath>
</defs>
</svg>
