<svg width="98" height="95" viewBox="0 0 98 95" fill="none" xmlns="http://www.w3.org/2000/svg">
<circle cx="55.5" cy="42.5" r="42.5" fill="#F7F7F7"/>
<path d="M54.5587 68.5998C68.491 68.5998 79.7854 57.3055 79.7854 43.3732C79.7854 29.4408 68.491 18.1465 54.5587 18.1465C40.6264 18.1465 29.332 29.4408 29.332 43.3732C29.332 57.3055 40.6264 68.5998 54.5587 68.5998Z" fill="#E1EAE6"/>
<path d="M39.2062 26.8463C38.9061 26.8463 38.6058 26.7317 38.3767 26.5026L35.0585 23.1844C34.6003 22.7262 34.6003 21.9835 35.0585 21.5253C35.5167 21.0671 36.2594 21.0671 36.7176 21.5253L40.0358 24.8435C40.4939 25.3017 40.4939 26.0444 40.0358 26.5026C39.8067 26.7319 39.5066 26.8463 39.2062 26.8463Z" fill="#BCC4C0"/>
<path d="M35.888 26.8463C35.588 26.8463 35.2876 26.7317 35.0585 26.5026C34.6003 26.0444 34.6003 25.3017 35.0585 24.8435L38.3767 21.5253C38.8349 21.0671 39.5776 21.0671 40.0358 21.5253C40.4939 21.9835 40.4939 22.7262 40.0358 23.1844L36.7176 26.5026C36.4885 26.7319 36.1881 26.8463 35.888 26.8463Z" fill="#BCC4C0"/>
<path d="M50.4526 29.8799C51.1006 29.8799 51.626 29.3546 51.626 28.7065C51.626 28.0585 51.1006 27.5332 50.4526 27.5332C49.8046 27.5332 49.2793 28.0585 49.2793 28.7065C49.2793 29.3546 49.8046 29.8799 50.4526 29.8799Z" fill="#BCC4C0"/>
<path d="M69.2261 31.0537C69.8741 31.0537 70.3994 30.5284 70.3994 29.8804C70.3994 29.2324 69.8741 28.707 69.2261 28.707C68.5781 28.707 68.0527 29.2324 68.0527 29.8804C68.0527 30.5284 68.5781 31.0537 69.2261 31.0537Z" fill="#BCC4C0"/>
<path d="M64.5329 80.3344H17.5996C15.0112 80.3344 12.9062 78.2295 12.9062 75.6411V73.2944C12.9062 72.6459 13.431 72.1211 14.0796 72.1211H68.0529C68.7015 72.1211 69.2262 72.6459 69.2262 73.2944V75.6411C69.2262 78.2295 67.1213 80.3344 64.5329 80.3344ZM15.2529 74.4678V75.6411C15.2529 76.9347 16.306 77.9878 17.5996 77.9878H64.5329C65.8265 77.9878 66.8796 76.9347 66.8796 75.6411V74.4678H15.2529Z" fill="#BCC4C0"/>
<path d="M44.5867 75.6409H67.1866C69.6092 75.6409 71.5734 73.7208 71.5734 71.3521V39.2676C71.5734 36.6754 69.4722 34.5743 66.8801 34.5743H32.602L29.9987 29.1746C29.2131 28.0992 27.9445 27.4609 26.5928 27.4609H13.5195C11.2371 27.4609 9.38672 29.2699 9.38672 31.5013V34.3437V39.5058V71.3521C9.38672 73.7208 11.3506 75.6409 13.7735 75.6409H38.7201" fill="white"/>
<path d="M67.1867 76.8138H44.5862C43.9377 76.8138 43.4129 76.289 43.4129 75.6404C43.4129 74.9919 43.9377 74.4671 44.5862 74.4671H67.1867C68.9581 74.4671 70.3996 73.0691 70.3996 71.3516V39.2671C70.3996 37.3261 68.8205 35.7471 66.8796 35.7471H32.6021C32.1518 35.7471 31.7403 35.4893 31.5455 35.0836L28.9926 29.7889C28.4241 29.0635 27.5339 28.6338 26.592 28.6338H13.5193C11.8878 28.6338 10.5596 29.9195 10.5596 31.5005V71.3513C10.5596 73.0691 12.001 74.4671 13.7724 74.4671H38.7196C39.3681 74.4671 39.8929 74.9919 39.8929 75.6404C39.8929 76.289 39.3681 76.8138 38.7196 76.8138H13.7724C10.7074 76.8138 8.21289 74.3639 8.21289 71.3516V31.5005C8.21289 28.6256 10.5927 26.2871 13.5193 26.2871H26.592C28.3141 26.2871 29.9413 27.1076 30.9462 28.4824C30.9876 28.5396 31.0243 28.6003 31.055 28.6646L33.3386 33.4004H66.8796C70.1141 33.4004 72.7462 36.0325 72.7462 39.2671V71.3516C72.7462 74.3639 70.2517 76.8138 67.1867 76.8138Z" fill="#BCC4C0"/>
<path d="M32.8535 35.7471H24.6401C23.9916 35.7471 23.4668 35.2223 23.4668 34.5737C23.4668 33.9252 23.9916 33.4004 24.6401 33.4004H32.8535C33.502 33.4004 34.0268 33.9252 34.0268 34.5737C34.0268 35.2223 33.502 35.7471 32.8535 35.7471Z" fill="#BCC4C0"/>
<path d="M71.4671 69.3742C70.4416 69.3742 69.4742 69.613 68.6068 70.0275C68.608 69.9676 68.6159 69.9095 68.6159 69.8494C68.6159 64.8627 64.5734 60.8203 59.5868 60.8203C54.7603 60.8203 50.8296 64.6105 50.5814 69.3754C50.5735 69.3754 50.5656 69.3742 50.5574 69.3742C46.8831 69.3742 43.9043 72.353 43.9043 76.0273C43.9043 79.7016 46.8831 82.6804 50.5577 82.6804H71.4674C75.1417 82.6804 78.1205 79.7016 78.1205 76.0273C78.1205 72.353 75.1417 69.3742 71.4671 69.3742Z" fill="#E8F7F0"/>
<path d="M71.4669 83.8535H50.5578C46.2414 83.8535 42.7305 80.3426 42.7305 76.0274C42.7305 72.0639 45.6914 68.7788 49.5173 68.269C50.2794 63.3569 54.5154 59.6465 59.5869 59.6465C64.7237 59.6465 68.985 63.461 69.6875 68.4063C70.2695 68.2687 70.8632 68.2001 71.4669 68.2001C75.7833 68.2001 79.2942 71.711 79.2942 76.0274C79.2939 80.3426 75.783 83.8535 71.4669 83.8535ZM50.5795 70.5482C47.5338 70.5482 45.0771 73.0061 45.0771 76.0277C45.0771 79.0493 47.5361 81.5069 50.5575 81.5069H71.4666C74.4882 81.5069 76.9472 79.049 76.9472 76.0274C76.9472 73.0058 74.4882 70.5468 71.4666 70.5468C70.654 70.5468 69.8612 70.7277 69.112 71.0853C68.7442 71.2628 68.3121 71.2332 67.9706 71.0132C67.6292 70.792 67.4253 70.4104 67.4332 70.0038C67.4344 69.9833 67.4391 69.88 67.4412 69.8595C67.4423 65.5178 63.9176 61.9934 59.5866 61.9934C55.4113 61.9934 51.9702 65.2626 51.7537 69.4356C51.7205 70.0589 51.206 70.5482 50.5815 70.5482C50.5815 70.5482 50.5807 70.5482 50.5795 70.5482Z" fill="#BCC4C0"/>
</svg>
