<svg width="59" height="55" viewBox="0 0 59 55" fill="none" xmlns="http://www.w3.org/2000/svg">
<path d="M4.5061 53.9545C2.44923 53.9545 0.775879 52.2927 0.775879 50.2501V3.86549C0.775879 1.82288 2.44923 0.161133 4.5061 0.161133H55.1071C57.164 0.161133 58.8373 1.82288 58.8373 3.86549V50.2501C58.8373 52.2927 57.164 53.9545 55.1071 53.9545H4.5061Z" fill="#7DD6A0"/>
<path d="M55.1075 0.322059C57.075 0.322059 58.6754 1.91166 58.6754 3.86525V50.2499C58.6754 52.2037 57.0748 53.7931 55.1075 53.7931H4.5065C2.53899 53.7931 0.938561 52.2035 0.938561 50.2499V3.86525C0.938561 1.91139 2.53927 0.322059 4.5065 0.322059H55.1075M55.1075 0H4.5065C2.36574 0 0.614258 1.73934 0.614258 3.86552V50.2502C0.614258 52.3761 2.36574 54.1157 4.5065 54.1157H55.1075C57.2483 54.1157 59 52.3763 59 50.2502V3.86525C58.9998 1.73934 57.2483 0 55.1075 0Z" fill="#7DD6A0"/>
<path d="M18.4252 13.6331C20.1978 13.6331 21.9989 14.8383 22.4381 17.1556C22.5428 17.7077 22.1171 18.2206 21.5515 18.2249L21.4205 18.226C20.9737 18.2295 20.6055 17.9067 20.5175 17.4716C20.2529 16.1616 19.3332 15.5657 18.4252 15.5657C17.5173 15.5657 16.5976 16.1613 16.333 17.4716C16.2453 17.9069 15.8771 18.2295 15.43 18.226L15.299 18.2249C14.7334 18.2203 14.3077 17.7074 14.4124 17.1556C14.8518 14.8383 16.6529 13.6331 18.4252 13.6331Z" fill="black"/>
<path d="M40.8068 13.6331C42.5794 13.6331 44.3805 14.8383 44.8197 17.1556C44.9244 17.7077 44.4987 18.2206 43.9331 18.2249L43.8021 18.226C43.3552 18.2295 42.9871 17.9067 42.8991 17.4716C42.6345 16.1616 41.7148 15.5657 40.8071 15.5657C39.8991 15.5657 38.9794 16.1613 38.7149 17.4716C38.6269 17.9069 38.259 18.2295 37.8118 18.226L37.6808 18.2249C37.1152 18.2203 36.6895 17.7074 36.7942 17.1556C37.2331 14.8383 39.0342 13.6331 40.8068 13.6331Z" fill="black"/>
<path d="M30.5822 31.0263H45.2801C45.2801 39.4476 38.6451 46.3775 30.5822 46.3775C22.5192 46.3775 15.8843 39.4476 15.8843 31.0263C15.8843 30.9174 15.8854 30.8086 15.8875 30.6997L30.5822 31.0263Z" fill="white" stroke="black" stroke-miterlimit="10"/>
</svg>
