<svg width="23" height="25" viewBox="0 0 23 25" fill="none" xmlns="http://www.w3.org/2000/svg">
<path d="M10.7189 0.955137L1.01805 8.55076C0.866764 8.66911 0.744398 8.82035 0.660226 8.99301C0.576053 9.16567 0.532281 9.35523 0.532227 9.54731V20.5156C0.532227 22.5976 2.24651 24.3119 4.32848 24.3119H11.077C11.2433 24.3121 11.408 24.2796 11.5617 24.2162C11.7153 24.1528 11.855 24.0597 11.9727 23.9423C12.0904 23.8249 12.1839 23.6854 12.2477 23.5319C12.3114 23.3784 12.3444 23.2138 12.3445 23.0475C12.3448 22.881 12.3122 22.7161 12.2485 22.5622C12.1849 22.4083 12.0916 22.2685 11.9738 22.1507C11.8561 22.033 11.7163 21.9396 11.5624 21.876C11.4085 21.8124 11.2436 21.7798 11.077 21.78H4.32848C3.6145 21.78 3.06099 21.2296 3.06099 20.5156V10.1639L11.5006 3.56175L19.937 10.1639V20.5156C19.937 21.2296 19.3866 21.78 18.6727 21.78C18.5061 21.7798 18.3412 21.8124 18.1873 21.876C18.0334 21.9396 17.8936 22.033 17.7759 22.1507C17.6581 22.2685 17.5648 22.4083 17.5011 22.5622C17.4375 22.7161 17.4049 22.881 17.4052 23.0475C17.4053 23.2138 17.4382 23.3784 17.502 23.5319C17.5658 23.6854 17.6593 23.8249 17.777 23.9423C17.8947 24.0597 18.0344 24.1528 18.188 24.2162C18.3417 24.2796 18.5064 24.3121 18.6727 24.3119C20.7546 24.3119 22.4689 22.5976 22.4689 20.5156V9.54731C22.4689 9.35523 22.4251 9.16567 22.3409 8.99301C22.2567 8.82035 22.1344 8.66911 21.9831 8.55076L12.2791 0.955137C12.0564 0.780852 11.7818 0.686157 11.499 0.686157C11.2162 0.686157 10.9416 0.780852 10.7189 0.955137Z" fill="#2C7955"/>
<path d="M14.8764 21.78C14.7099 21.7798 14.5449 21.8124 14.391 21.876C14.2371 21.9396 14.0973 22.033 13.9796 22.1507C13.8618 22.2685 13.7685 22.4083 13.7049 22.5622C13.6413 22.7161 13.6086 22.881 13.6089 23.0475C13.6091 23.2138 13.642 23.3784 13.7058 23.5319C13.7696 23.6854 13.863 23.8249 13.9807 23.9423C14.0984 24.0597 14.2381 24.1528 14.3918 24.2162C14.5454 24.2796 14.7101 24.3121 14.8764 24.3119C15.2116 24.3116 15.533 24.1783 15.7701 23.9412C16.0071 23.7042 16.1404 23.3828 16.1408 23.0475C16.141 22.8813 16.1085 22.7166 16.0451 22.5629C15.9817 22.4092 15.8886 22.2695 15.7712 22.1518C15.6538 22.0341 15.5143 21.9407 15.3608 21.8769C15.2072 21.8131 15.0426 21.7802 14.8764 21.78Z" fill="#2C7955"/>
</svg>
