<svg width="19" height="19" viewBox="0 0 19 19" fill="none" xmlns="http://www.w3.org/2000/svg">
<path d="M9.50077 1.1875C5.57629 1.1875 2.37401 4.38758 2.37402 8.31206V10.6876C2.37423 10.9236 2.46802 11.1498 2.63481 11.3166L8.86962 17.5514C8.95234 17.6342 9.05055 17.6999 9.15866 17.7447C9.26677 17.7895 9.38265 17.8126 9.49968 17.8126C9.61671 17.8126 9.73259 17.7895 9.8407 17.7447C9.94881 17.6999 10.047 17.6342 10.1297 17.5514C10.2963 17.3845 10.3898 17.1583 10.3898 16.9225C10.3898 16.6866 10.2963 16.4605 10.1297 16.2935L4.15571 10.3195V8.31206C4.1557 5.35024 6.53895 2.96919 9.50077 2.96919C12.4626 2.96919 14.8436 5.35025 14.8436 8.31206V10.3195L12.433 12.7301C12.3502 12.8128 12.2845 12.9111 12.2397 13.0192C12.1949 13.1273 12.1719 13.2432 12.1719 13.3602C12.1719 13.4772 12.1949 13.5931 12.2397 13.7012C12.2845 13.8093 12.3502 13.9075 12.433 13.9902C12.5157 14.073 12.6139 14.1387 12.722 14.1835C12.8301 14.2283 12.946 14.2514 13.0631 14.2514C13.1801 14.2514 13.296 14.2283 13.4041 14.1835C13.5122 14.1387 13.6104 14.073 13.6931 13.9902L16.3646 11.3166C16.5313 11.1498 16.6251 10.9236 16.6253 10.6876V8.31206C16.6253 4.38759 13.4252 1.1875 9.50077 1.1875Z" fill="#2C7955"/>
<path d="M11.2804 14.252C11.0445 14.2522 10.8183 14.346 10.6515 14.5128C10.4847 14.6796 10.3909 14.9058 10.3906 15.1417C10.3905 15.2587 10.4133 15.3746 10.458 15.4827C10.5026 15.5909 10.5681 15.6892 10.6507 15.772C10.7333 15.8548 10.8315 15.9206 10.9395 15.9655C11.0476 16.0104 11.1634 16.0335 11.2804 16.0336C11.3976 16.0338 11.5136 16.0109 11.6219 15.9661C11.7302 15.9213 11.8286 15.8556 11.9115 15.7728C11.9943 15.6899 12.06 15.5915 12.1048 15.4832C12.1495 15.3749 12.1725 15.2589 12.1723 15.1417C12.1722 15.0247 12.149 14.9089 12.1041 14.8008C12.0593 14.6928 11.9935 14.5947 11.9107 14.512C11.8279 14.4294 11.7296 14.3639 11.6214 14.3193C11.5133 14.2747 11.3974 14.2518 11.2804 14.252Z" fill="#2C7955"/>
<path d="M9.50073 5.04688C7.87168 5.04688 6.53125 6.38731 6.53125 8.01636C6.53125 9.6454 7.87168 10.9858 9.50073 10.9858C11.1298 10.9858 12.468 9.6454 12.468 8.01636C12.468 6.38731 11.1298 5.04688 9.50073 5.04688ZM9.50073 6.82856C10.1671 6.82856 10.6863 7.34997 10.6863 8.01636C10.6863 8.68274 10.1671 9.20415 9.50073 9.20415C8.83434 9.20415 8.31294 8.68274 8.31294 8.01636C8.31294 7.34997 8.83434 6.82856 9.50073 6.82856Z" fill="#2C7955"/>
</svg>
