<svg width="23" height="23" viewBox="0 0 23 23" fill="none" xmlns="http://www.w3.org/2000/svg">
<path d="M19.1667 15.3333C18.9125 15.3333 18.6687 15.2324 18.489 15.0526C18.3093 14.8729 18.2083 14.6292 18.2083 14.375V5.75C18.2083 5.49583 18.1074 5.25208 17.9276 5.07236C17.7479 4.89263 17.5042 4.79167 17.25 4.79167H5.75C5.49583 4.79167 5.25208 4.89263 5.07236 5.07236C4.89263 5.25208 4.79167 5.49583 4.79167 5.75V14.375C4.79167 14.6292 4.6907 14.8729 4.51098 15.0526C4.33125 15.2324 4.0875 15.3333 3.83333 15.3333C3.57917 15.3333 3.33541 15.2324 3.15569 15.0526C2.97597 14.8729 2.875 14.6292 2.875 14.375V5.75C2.875 4.9875 3.1779 4.25624 3.71707 3.71707C4.25624 3.1779 4.9875 2.875 5.75 2.875H17.25C18.0125 2.875 18.7438 3.1779 19.2829 3.71707C19.8221 4.25624 20.125 4.9875 20.125 5.75V14.375C20.125 14.6292 20.024 14.8729 19.8443 15.0526C19.6646 15.2324 19.4208 15.3333 19.1667 15.3333Z" fill="#2C7955"/>
<path d="M18.2087 20.125H4.79199C4.02949 20.125 3.29823 19.8221 2.75906 19.2829C2.21989 18.7437 1.91699 18.0125 1.91699 17.25V15.3333C1.91699 14.825 2.11893 14.3374 2.47837 13.978C2.83782 13.6186 3.32533 13.4166 3.83366 13.4166H7.07283C7.42941 13.4168 7.77886 13.5165 8.08191 13.7044C8.38495 13.8923 8.62956 14.161 8.78824 14.4804L9.21949 15.3333H13.7812L14.2124 14.4804C14.3711 14.161 14.6157 13.8923 14.9187 13.7044C15.2218 13.5165 15.5712 13.4168 15.9278 13.4166H19.167C19.6753 13.4166 20.1628 13.6186 20.5223 13.978C20.8817 14.3374 21.0837 14.825 21.0837 15.3333V17.25C21.0837 18.0125 20.7808 18.7437 20.2416 19.2829C19.7024 19.8221 18.9712 20.125 18.2087 20.125ZM7.07283 15.3333H3.83366V17.25C3.83366 17.5041 3.93463 17.7479 4.11435 17.9276C4.29407 18.1073 4.53783 18.2083 4.79199 18.2083H18.2087C18.4628 18.2083 18.7066 18.1073 18.8863 17.9276C19.066 17.7479 19.167 17.5041 19.167 17.25V15.3333H15.9278L15.4966 16.1862C15.3379 16.5055 15.0933 16.7743 14.7902 16.9622C14.4872 17.1501 14.1377 17.2498 13.7812 17.25H9.21949C8.86291 17.2498 8.51345 17.1501 8.21041 16.9622C7.90737 16.7743 7.66275 16.5055 7.50408 16.1862L7.07283 15.3333Z" fill="#2C7955"/>
</svg>
