<svg width="19" height="19" viewBox="0 0 19 19" fill="none" xmlns="http://www.w3.org/2000/svg">
<path d="M15.4374 10.6877H14.2499C14.1459 10.6877 14.043 10.6672 13.9469 10.6275C13.8509 10.5877 13.7636 10.5294 13.6901 10.4558C13.6165 10.3823 13.5582 10.295 13.5185 10.199C13.4787 10.1029 13.4582 9.99997 13.4583 9.896V5.93766C13.4582 5.83369 13.4787 5.73073 13.5185 5.63467C13.5582 5.53861 13.6165 5.45133 13.6901 5.37781C13.7636 5.30429 13.8509 5.24598 13.9469 5.2062C14.043 5.16643 14.1459 5.14597 14.2499 5.146H15.4374C16.1723 5.146 16.8771 5.43792 17.3967 5.95755C17.9163 6.47719 18.2083 7.18196 18.2083 7.91683C18.2083 8.6517 17.9163 9.35647 17.3967 9.8761C16.8771 10.3957 16.1723 10.6877 15.4374 10.6877ZM15.0416 9.10433H15.4374C15.7524 9.10433 16.0544 8.97922 16.2771 8.75652C16.4998 8.53382 16.6249 8.23177 16.6249 7.91683C16.6249 7.60188 16.4998 7.29984 16.2771 7.07714C16.0544 6.85444 15.7524 6.72933 15.4374 6.72933H15.0416V9.10433Z" fill="#2C7955"/>
<path d="M8.00669 18.2084H7.73108C7.15245 18.2076 6.59396 17.9959 6.16019 17.613C5.72642 17.23 5.44713 16.702 5.37463 16.128L4.75614 11.1816C4.74218 11.0702 4.75208 10.9571 4.78518 10.8499C4.81828 10.7426 4.87381 10.6436 4.9481 10.5594C5.02239 10.4753 5.11373 10.4079 5.21606 10.3617C5.31839 10.3156 5.42937 10.2917 5.54162 10.2917H7.91662C8.07774 10.2918 8.23503 10.3409 8.36749 10.4326C8.49996 10.5244 8.60131 10.6543 8.65803 10.8051L10.2309 14.9992C10.3656 15.3586 10.4113 15.7453 10.3639 16.1261C10.3165 16.507 10.1776 16.8707 9.95896 17.1861C9.74034 17.5016 9.44854 17.7593 9.10855 17.9374C8.76855 18.1154 8.39048 18.2084 8.00669 18.2084ZM6.4384 11.8751L6.94556 15.9316C6.96977 16.1229 7.06289 16.2989 7.20747 16.4265C7.35206 16.5542 7.53821 16.6248 7.73108 16.6251H8.00669C8.13465 16.6251 8.26071 16.5941 8.37407 16.5347C8.48743 16.4754 8.58471 16.3894 8.65759 16.2842C8.73047 16.1791 8.77677 16.0578 8.79254 15.9308C8.8083 15.8038 8.79305 15.6749 8.7481 15.5551L7.3681 11.8751H6.4384Z" fill="#2C7955"/>
<path d="M13.0628 14.1859C12.718 14.1854 12.3794 14.0945 12.0806 13.9223L8.86328 12.0838C8.62379 11.9474 8.35303 11.8755 8.07744 11.875H4.74996C3.70014 11.875 2.69333 11.458 1.95099 10.7157C1.20866 9.97334 0.791626 8.96652 0.791626 7.91671C0.791626 6.86689 1.20866 5.86008 1.95099 5.11774C2.69333 4.37541 3.70014 3.95838 4.74996 3.95838H8.07744C8.35315 3.95788 8.62403 3.88596 8.86369 3.74964L12.0806 1.91117C12.3816 1.73927 12.7225 1.64943 13.0692 1.65065C13.4158 1.65186 13.7561 1.7441 14.0559 1.91811C14.3557 2.09213 14.6045 2.34183 14.7775 2.64223C14.9505 2.94262 15.0416 3.28318 15.0416 3.62983V12.2036C15.0405 12.7284 14.8317 13.2314 14.461 13.6028C14.0903 13.9742 13.5876 14.1838 13.0628 14.1859ZM4.74996 5.54171C4.12007 5.54171 3.51598 5.79193 3.07058 6.23733C2.62518 6.68273 2.37496 7.28682 2.37496 7.91671C2.37496 8.5466 2.62518 9.15069 3.07058 9.59609C3.51598 10.0415 4.12007 10.2917 4.74996 10.2917H8.07744C8.62843 10.2923 9.16981 10.4362 9.6484 10.7092L12.8661 12.5477C12.9264 12.582 12.9946 12.5999 13.0639 12.5996C13.1332 12.5994 13.2013 12.5809 13.2612 12.546C13.3212 12.5112 13.3709 12.4612 13.4055 12.4011C13.4401 12.341 13.4583 12.2729 13.4583 12.2036V3.62983C13.4583 3.5605 13.4401 3.49238 13.4055 3.43229C13.3709 3.37219 13.3212 3.32223 13.2612 3.2874C13.2013 3.25257 13.1332 3.23409 13.0639 3.23381C12.9946 3.23353 12.9264 3.25146 12.8661 3.2858L9.64879 5.12423C9.17004 5.39722 8.62855 5.54109 8.07744 5.54171H4.74996Z" fill="#2C7955"/>
<path d="M7.91667 9.50016C7.8127 9.50019 7.70974 9.47973 7.61368 9.43996C7.51762 9.40018 7.43033 9.34187 7.35681 9.26835C7.2833 9.19483 7.22498 9.10755 7.18521 9.01149C7.14543 8.91542 7.12497 8.81247 7.125 8.7085V4.75016C7.125 4.5402 7.20841 4.33884 7.35687 4.19037C7.50534 4.0419 7.7067 3.9585 7.91667 3.9585C8.12663 3.9585 8.32799 4.0419 8.47646 4.19037C8.62493 4.33884 8.70833 4.5402 8.70833 4.75016V8.7085C8.70836 8.81247 8.6879 8.91542 8.64813 9.01149C8.60835 9.10755 8.55004 9.19483 8.47652 9.26835C8.403 9.34187 8.31572 9.40018 8.21966 9.43996C8.12359 9.47973 8.02064 9.50019 7.91667 9.50016Z" fill="#2C7955"/>
</svg>
