<svg width="75" height="18" viewBox="0 0 75 18" fill="none" xmlns="http://www.w3.org/2000/svg">
<path fill-rule="evenodd" clip-rule="evenodd" d="M18.1339 7.76269C18.1528 7.85421 18.1701 7.94616 18.1859 8.03848C18.2345 6.57806 18.1738 5.09342 18.118 3.72405C18.081 2.81943 18.0461 1.96512 18.0461 1.20132C17.268 1.20132 16.3979 1.16727 15.4767 1.13121C14.091 1.07697 12.5894 1.0182 11.1108 1.06398C9.68802 1.10699 8.2869 1.24919 7.03383 1.5846C6.00837 1.85915 5.07631 2.2649 4.31605 2.85421C4.04723 3.06217 3.79116 3.28555 3.54921 3.52319L3.47928 3.59274C3.26297 3.80973 3.05797 4.03764 2.86652 4.27608C0.891824 6.73466 0.945433 10.9718 1.08482 14.5867C1.0931 14.8006 1.10189 15.0126 1.11036 15.2217L1.11051 15.2256C1.14726 16.1327 1.18199 16.9899 1.18199 17.7553H1.21975C1.21955 17.7554 1.21996 17.7552 1.21975 17.7553C1.98856 17.7553 2.84658 17.7889 3.75366 17.8247C4.31598 17.8468 4.8974 17.8698 5.48864 17.8859C6.4331 17.9115 7.40239 17.9209 8.35851 17.8834C10.8619 17.7855 13.2747 17.3695 14.9119 16.1016C15.4501 15.685 15.9364 15.2077 16.3608 14.6794C17.6884 13.0253 18.0996 10.5685 18.1839 8.03764C18.1682 7.94634 18.1515 7.85465 18.1339 7.76269ZM11.2238 12.9149C11.5612 12.8097 11.8399 12.6811 12.0417 12.5247C12.1673 12.4275 12.2871 12.3232 12.4002 12.2121C12.513 12.101 12.6194 11.9837 12.7186 11.8607C13.4934 10.8952 13.5996 8.15066 13.553 5.61201C13.2733 5.60698 12.9909 5.60378 12.7088 5.60287C11.0876 5.59831 9.4694 5.67357 8.34097 5.94808C8.3372 5.90746 8.33321 5.86685 8.32901 5.82625C8.33232 5.86692 8.33583 5.90763 8.33957 5.94836C7.85102 6.06825 7.45384 6.22565 7.18766 6.43111C6.93655 6.62573 6.70953 6.84857 6.51125 7.09506C5.73601 8.06009 5.63019 10.8051 5.6768 13.3438C5.94749 13.3483 6.22098 13.3524 6.494 13.3524C6.49394 13.3525 6.49405 13.3524 6.494 13.3524C8.29248 13.3584 10.0906 13.2681 11.2238 12.9149Z" fill="#2C7955"/>
<path d="M23.2631 15.822V15.6299L23.6546 15.4954C24.0982 15.3545 24.32 14.9895 24.32 14.4003V4.56361C24.32 4.30744 24.2874 4.10251 24.2222 3.94881C24.17 3.79512 24.0199 3.66703 23.772 3.56456L23.2631 3.33401V3.14189H27.0406L30.6617 12.4407L34.0674 3.14189H37.9233V3.33401L37.6101 3.44929C37.3621 3.53895 37.1926 3.66703 37.1012 3.83354C37.0098 3.98724 36.9642 4.19217 36.9642 4.44833V14.4964C36.9642 14.7525 36.9968 14.9511 37.062 15.0919C37.1273 15.2329 37.2839 15.3545 37.5318 15.457L37.9233 15.6299V15.822H33.0496V15.6299L33.4606 15.457C33.7085 15.3545 33.8651 15.2329 33.9303 15.0919C33.9956 14.9511 34.0282 14.7525 34.0282 14.4964V10.1736L34.0674 4.67888L29.9766 15.822H28.9979L24.731 4.81336L24.7898 9.59721V14.4387C24.7898 14.7205 24.8289 14.951 24.9072 15.1304C24.9985 15.2969 25.1682 15.4186 25.4161 15.4954L25.8467 15.6299V15.822H23.2631Z" fill="#2C7955"/>
<path d="M41.0944 5.29367C40.6507 5.29367 40.2723 5.15919 39.9591 4.89022C39.659 4.60843 39.509 4.25621 39.509 3.83354C39.509 3.39806 39.659 3.04583 39.9591 2.77686C40.2723 2.50788 40.6507 2.3734 41.0944 2.3734C41.538 2.3734 41.9099 2.50788 42.2101 2.77686C42.5102 3.04583 42.6602 3.39806 42.6602 3.83354C42.6602 4.25621 42.5102 4.60843 42.2101 4.89022C41.9099 5.15919 41.538 5.29367 41.0944 5.29367ZM38.7847 15.822V15.6299L39.0588 15.5531C39.3197 15.4762 39.4959 15.3609 39.5872 15.2072C39.6916 15.0535 39.7438 14.8486 39.7438 14.5924V8.57898C39.7438 8.31001 39.6916 8.11148 39.5872 7.9834C39.4959 7.84251 39.3197 7.74644 39.0588 7.69521L38.7847 7.63757V7.44546L42.3667 6.31193L42.5624 6.50405L42.5036 9.23217V14.6117C42.5036 14.8678 42.5493 15.0728 42.6406 15.2264C42.745 15.3801 42.9212 15.4954 43.1691 15.5722L43.3649 15.6299V15.822H38.7847Z" fill="#2C7955"/>
<path d="M44.2314 15.822V15.6299L44.5054 15.5531C44.9622 15.425 45.1905 15.1112 45.1905 14.6117V8.59819C45.1905 8.31641 45.1448 8.11148 45.0535 7.9834C44.9622 7.84251 44.786 7.74644 44.525 7.69521L44.2314 7.61836V7.42624L47.5784 6.31193L47.7741 6.50405L47.9307 7.65679C48.3874 7.25973 48.9028 6.93312 49.477 6.67696C50.0511 6.4208 50.6188 6.29272 51.1798 6.29272C52.0411 6.29272 52.7 6.52326 53.1567 6.98435C53.6265 7.44545 53.8613 8.1499 53.8613 9.09772V14.6308C53.8613 15.1304 54.1093 15.4442 54.6051 15.5722L54.7813 15.6299V15.822H50.162V15.6299L50.4165 15.5531C50.8732 15.4121 51.1016 15.0983 51.1016 14.6117V8.48292C51.1016 7.66319 50.6839 7.25332 49.8488 7.25332C49.2747 7.25332 48.6484 7.53511 47.9699 8.09867V14.6308C47.9699 15.1304 48.1982 15.4442 48.6549 15.5722L48.831 15.6299V15.822H44.2314Z" fill="#2C7955"/>
<path d="M59.1703 15.8369C58.3352 15.8369 57.6828 15.632 57.213 15.2221C56.7564 14.8123 56.528 14.159 56.528 13.2625V6.69184H55.1775V6.49972L55.6472 6.42287C56.0517 6.33321 56.3975 6.20513 56.6846 6.03862C56.9847 5.87211 57.2783 5.64797 57.5654 5.36619L59.1703 3.61787H59.3661L59.3074 6.30759H61.4995V6.69184H59.2878V13.6083C59.2878 14.0565 59.3856 14.396 59.5814 14.6265C59.7902 14.8571 60.0512 14.9724 60.3643 14.9724C60.6384 14.9724 60.8797 14.9083 61.0885 14.7802C61.2973 14.6393 61.506 14.4536 61.7148 14.2231L61.9105 14.4152C61.6496 14.8507 61.2907 15.1965 60.8341 15.4526C60.3773 15.7088 59.8228 15.8369 59.1703 15.8369Z" fill="#2C7955"/>
<path d="M68.9303 3.73562H67.8133V6.34194H65.0009V3.73562H63.8839V9.91341H65.0009V7.25464H67.8133V9.91341H68.9303V3.73562ZM73.4042 9.91341H74.7344L73.1909 7.3765C73.6537 7.25407 74.0026 7.03545 74.2321 6.71771C74.4757 6.38291 74.5978 6.01138 74.5978 5.60446C74.5978 5.25802 74.5126 4.94314 74.3414 4.66103C74.1754 4.37748 73.921 4.15269 73.581 3.98584C73.2454 3.81819 72.8361 3.73562 72.3554 3.73562H70.1663V9.91341H71.2833V7.48204H71.9786L73.4042 9.91341ZM73.1755 6.32096C72.9982 6.49494 72.7277 6.58682 72.3554 6.58682H71.2833V4.64833H72.3554C72.7343 4.64833 73.0074 4.73709 73.1844 4.90546C73.362 5.0689 73.4542 5.29992 73.4542 5.60446C73.4542 5.90842 73.36 6.14537 73.1755 6.32096Z" fill="#2C7955"/>
<path d="M3.47928 3.59274L3.54921 3.52319C3.79116 3.28555 4.04723 3.06217 4.31605 2.85421C5.07631 2.2649 6.00837 1.85915 7.03383 1.5846C8.2869 1.24919 9.68802 1.10699 11.1108 1.06398C12.5894 1.0182 14.091 1.07697 15.4767 1.13121C16.3979 1.16727 17.268 1.20132 18.0461 1.20132C18.0461 1.96512 18.081 2.81943 18.118 3.72405C18.1738 5.09342 18.2345 6.57806 18.1859 8.03848C18.1701 7.94616 18.1528 7.85421 18.1339 7.76269C18.1515 7.85465 18.1682 7.94634 18.1839 8.03764C18.0996 10.5685 17.6884 13.0253 16.3608 14.6794C15.9364 15.2077 15.4501 15.685 14.9119 16.1016C13.2747 17.3695 10.8619 17.7855 8.35851 17.8834C7.40239 17.9209 6.4331 17.9115 5.48864 17.8859M3.47928 3.59274C3.49643 3.64916 3.51293 3.70563 3.52879 3.76215M3.47928 3.59274C3.26297 3.80973 3.05797 4.03764 2.86652 4.27608C0.891824 6.73466 0.945433 10.9718 1.08482 14.5867M1.08482 14.5867C1.11631 14.5509 1.14756 14.5148 1.17858 14.4786M1.08482 14.5867C1.0931 14.8006 1.10189 15.0126 1.11036 15.2217L1.11051 15.2256C1.14726 16.1327 1.18199 16.9899 1.18199 17.7553H1.21975M1.21975 17.7553C1.21996 17.7552 1.21955 17.7554 1.21975 17.7553ZM1.21975 17.7553C1.98856 17.7553 2.84658 17.7889 3.75366 17.8247C4.31598 17.8468 4.8974 17.8698 5.48864 17.8859M5.48864 17.8859C5.83516 17.7425 6.17625 17.583 6.51188 17.4072C6.92446 17.1892 7.32234 16.9483 7.70381 16.6863M6.494 13.3524C6.22098 13.3524 5.94749 13.3483 5.6768 13.3438C5.63019 10.8051 5.73601 8.06009 6.51125 7.09506C6.70953 6.84857 6.93655 6.62573 7.18766 6.43111C7.45384 6.22565 7.85102 6.06825 8.33957 5.94836C8.33583 5.90763 8.33232 5.86692 8.32901 5.82625C8.33321 5.86685 8.3372 5.90746 8.34097 5.94808C9.4694 5.67357 11.0876 5.59831 12.7088 5.60287C12.9909 5.60378 13.2733 5.60698 13.553 5.61201C13.5996 8.15066 13.4934 10.8952 12.7186 11.8607C12.6194 11.9837 12.513 12.101 12.4002 12.2121C12.2871 12.3232 12.1673 12.4275 12.0417 12.5247C11.8399 12.6811 11.5612 12.8097 11.2238 12.9149C10.0906 13.2681 8.29248 13.3584 6.494 13.3524ZM6.494 13.3524C6.49405 13.3524 6.49394 13.3525 6.494 13.3524ZM23.2631 15.822V15.6299L23.6546 15.4954C24.0982 15.3545 24.32 14.9895 24.32 14.4003V4.56361C24.32 4.30744 24.2874 4.10251 24.2222 3.94881C24.17 3.79512 24.0199 3.66703 23.772 3.56456L23.2631 3.33401V3.14189H27.0406L30.6617 12.4407L34.0674 3.14189H37.9233V3.33401L37.6101 3.44929C37.3621 3.53895 37.1926 3.66703 37.1012 3.83354C37.0098 3.98724 36.9642 4.19217 36.9642 4.44833V14.4964C36.9642 14.7525 36.9968 14.9511 37.062 15.0919C37.1273 15.2329 37.2839 15.3545 37.5318 15.457L37.9233 15.6299V15.822H33.0496V15.6299L33.4606 15.457C33.7085 15.3545 33.8651 15.2329 33.9303 15.0919C33.9956 14.9511 34.0282 14.7525 34.0282 14.4964V10.1736L34.0674 4.67888L29.9766 15.822H28.9979L24.731 4.81336L24.7898 9.59721V14.4387C24.7898 14.7205 24.8289 14.951 24.9072 15.1304C24.9985 15.2969 25.1682 15.4186 25.4161 15.4954L25.8467 15.6299V15.822H23.2631ZM41.0944 5.29367C40.6507 5.29367 40.2723 5.15919 39.9591 4.89022C39.659 4.60843 39.509 4.25621 39.509 3.83354C39.509 3.39806 39.659 3.04583 39.9591 2.77686C40.2723 2.50788 40.6507 2.3734 41.0944 2.3734C41.538 2.3734 41.9099 2.50788 42.2101 2.77686C42.5102 3.04583 42.6602 3.39806 42.6602 3.83354C42.6602 4.25621 42.5102 4.60843 42.2101 4.89022C41.9099 5.15919 41.538 5.29367 41.0944 5.29367ZM38.7847 15.822V15.6299L39.0588 15.5531C39.3197 15.4762 39.4959 15.3609 39.5872 15.2072C39.6916 15.0535 39.7438 14.8486 39.7438 14.5924V8.57898C39.7438 8.31001 39.6916 8.11148 39.5872 7.9834C39.4959 7.84251 39.3197 7.74644 39.0588 7.69521L38.7847 7.63757V7.44546L42.3667 6.31193L42.5624 6.50405L42.5036 9.23217V14.6117C42.5036 14.8678 42.5493 15.0728 42.6406 15.2264C42.745 15.3801 42.9212 15.4954 43.1691 15.5722L43.3649 15.6299V15.822H38.7847ZM44.2314 15.822V15.6299L44.5054 15.5531C44.9622 15.425 45.1905 15.1112 45.1905 14.6117V8.59819C45.1905 8.31641 45.1448 8.11148 45.0535 7.9834C44.9622 7.84251 44.786 7.74644 44.525 7.69521L44.2314 7.61836V7.42624L47.5784 6.31193L47.7741 6.50405L47.9307 7.65679C48.3874 7.25973 48.9028 6.93312 49.477 6.67696C50.0511 6.4208 50.6188 6.29272 51.1798 6.29272C52.0411 6.29272 52.7 6.52326 53.1567 6.98435C53.6265 7.44545 53.8613 8.1499 53.8613 9.09772V14.6308C53.8613 15.1304 54.1093 15.4442 54.6051 15.5722L54.7813 15.6299V15.822H50.162V15.6299L50.4165 15.5531C50.8732 15.4121 51.1016 15.0983 51.1016 14.6117V8.48292C51.1016 7.66319 50.6839 7.25332 49.8488 7.25332C49.2747 7.25332 48.6484 7.53511 47.9699 8.09867V14.6308C47.9699 15.1304 48.1982 15.4442 48.6549 15.5722L48.831 15.6299V15.822H44.2314ZM59.1703 15.8369C58.3352 15.8369 57.6828 15.632 57.213 15.2221C56.7564 14.8123 56.528 14.159 56.528 13.2625V6.69184H55.1775V6.49972L55.6472 6.42287C56.0517 6.33321 56.3975 6.20513 56.6846 6.03862C56.9847 5.87211 57.2783 5.64797 57.5654 5.36619L59.1703 3.61787H59.3661L59.3074 6.30759H61.4995V6.69184H59.2878V13.6083C59.2878 14.0565 59.3856 14.396 59.5814 14.6265C59.7902 14.8571 60.0512 14.9724 60.3643 14.9724C60.6384 14.9724 60.8797 14.9083 61.0885 14.7802C61.2973 14.6393 61.506 14.4536 61.7148 14.2231L61.9105 14.4152C61.6496 14.8507 61.2907 15.1965 60.8341 15.4526C60.3773 15.7088 59.8228 15.8369 59.1703 15.8369ZM68.9303 3.73562V9.91341H67.8133V7.25464H65.0009V9.91341H63.8839V3.73562H65.0009V6.34194H67.8133V3.73562H68.9303ZM73.4042 9.91341L71.9786 7.48204H71.2833V9.91341H70.1663V3.73562H72.3554C72.8361 3.73562 73.2454 3.81819 73.581 3.98584C73.921 4.15269 74.1754 4.37748 74.3414 4.66103C74.5126 4.94314 74.5978 5.25802 74.5978 5.60446C74.5978 6.01138 74.4757 6.38291 74.2321 6.71771C74.0026 7.03545 73.6537 7.25407 73.1909 7.3765L74.7344 9.91341H73.4042ZM73.1755 6.32096C72.9982 6.49494 72.7277 6.58682 72.3554 6.58682H71.2833V4.64833H72.3554C72.7343 4.64833 73.0074 4.73709 73.1844 4.90546C73.362 5.0689 73.4542 5.29992 73.4542 5.60446C73.4542 5.90842 73.36 6.14537 73.1755 6.32096Z" stroke="#2C7955" stroke-width="0.128536"/>
</svg>
