<svg width="23" height="18" viewBox="0 0 23 18" fill="none" xmlns="http://www.w3.org/2000/svg">
<path d="M1.39819 2.79605H21.6021C22.3731 2.79605 23 2.16913 23 1.39819C23 0.627253 22.3731 0 21.6021 0H1.39819C0.627253 0 0 0.627253 0 1.39819C0 2.16913 0.627253 2.79605 1.39819 2.79605Z" fill="#2C7955"/>
<path d="M21.6021 7.21557H1.39819C0.627253 7.21557 0 7.84283 0 8.61377C0 9.3847 0.627253 10.0116 1.39819 10.0116H21.6021C22.3731 10.0116 23 9.3847 23 8.61377C23 7.84283 22.3731 7.21557 21.6021 7.21557Z" fill="#2C7955"/>
<path d="M21.6021 14.4311H1.39819C0.627253 14.4311 0 15.0587 0 15.8297C0 16.6006 0.627253 17.2275 1.39819 17.2275H21.6021C22.3731 17.2275 23 16.6006 23 15.8297C23 15.0587 22.3731 14.4311 21.6021 14.4311Z" fill="#2C7955"/>
</svg>
