<svg width="60" height="55" viewBox="0 0 60 55" fill="none" xmlns="http://www.w3.org/2000/svg">
<path d="M4.76538 53.9545C2.70851 53.9545 1.03516 52.2927 1.03516 50.2501V3.86549C1.03516 1.82288 2.70851 0.161133 4.76538 0.161133H55.3664C57.4233 0.161133 59.0966 1.82288 59.0966 3.86549V50.2501C59.0966 52.2927 57.4233 53.9545 55.3664 53.9545H4.76538Z" fill="#FFC801"/>
<path d="M55.3649 0.322059C57.3324 0.322059 58.9328 1.91166 58.9328 3.86525V50.2499C58.9328 52.2037 57.3321 53.7931 55.3649 53.7931H4.7641C2.79659 53.7931 1.19616 52.2035 1.19616 50.2499V3.86525C1.19616 1.91139 2.79687 0.322059 4.7641 0.322059H55.3649ZM55.3649 0H4.7641C2.62334 0 0.871582 1.73934 0.871582 3.86552V50.2501C0.871582 52.3761 2.62306 54.1157 4.7641 54.1157H55.3651C57.5059 54.1157 59.2576 52.3763 59.2576 50.2501V3.86525C59.2574 1.73934 57.5056 0 55.3649 0Z" fill="#FFC801"/>
<path d="M17.8999 21.088C19.6913 21.088 21.1435 19.6459 21.1435 17.8669C21.1435 16.0879 19.6913 14.6458 17.8999 14.6458C16.1085 14.6458 14.6562 16.0879 14.6562 17.8669C14.6562 19.6459 16.1085 21.088 17.8999 21.088Z" fill="black"/>
<path d="M42.227 21.0861C44.0184 21.0861 45.4706 19.6439 45.4706 17.8649C45.4706 16.0859 44.0184 14.6438 42.227 14.6438C40.4356 14.6438 38.9834 16.0859 38.9834 17.8649C38.9834 19.6439 40.4356 21.0861 42.227 21.0861Z" fill="black"/>
<path d="M47.43 37.6113H12.6948V39.866H47.43V37.6113Z" fill="black"/>
</svg>
