<svg width="19" height="19" viewBox="0 0 19 19" fill="none" xmlns="http://www.w3.org/2000/svg">
<path d="M9.49884 1.18695C6.23019 1.18695 3.56248 3.85755 3.5625 7.12619V13.3588C3.5625 14.1892 2.90904 14.8444 2.0787 14.8444C1.58637 14.8434 1.18665 15.2421 1.18634 15.7344C1.18698 16.2265 1.5866 16.6248 2.0787 16.6239H8.60937V16.9219C8.60985 17.4131 9.00764 17.8115 9.49884 17.812C9.99089 17.8127 10.3901 17.414 10.3906 16.9219V16.6239H16.9219C17.1581 16.6242 17.3847 16.5306 17.552 16.3638C17.7192 16.197 17.8133 15.9706 17.8137 15.7344C17.8136 15.6174 17.7904 15.5016 17.7456 15.3935C17.7007 15.2854 17.635 15.1873 17.5522 15.1046C17.4694 15.022 17.3711 14.9564 17.2629 14.9118C17.1548 14.8671 17.0389 14.8442 16.9219 14.8444C16.0915 14.8444 15.4381 14.1892 15.4381 13.3588C15.438 13.2418 15.4149 13.1259 15.37 13.0178C15.3251 12.9097 15.2593 12.8115 15.1764 12.7288C15.0935 12.6462 14.9952 12.5806 14.8869 12.536C14.7787 12.4914 14.6628 12.4686 14.5457 12.4688C14.3098 12.4691 14.0837 12.563 13.9169 12.7298C13.7501 12.8967 13.6564 13.1229 13.6562 13.3588C13.6562 13.8925 13.7864 14.3979 14.0169 14.8444H4.98193C5.21269 14.3977 5.34375 13.8928 5.34375 13.3588V7.12619C5.34374 4.82021 7.19285 2.96878 9.49884 2.96878C11.8048 2.96878 13.6562 4.82022 13.6562 7.12619V8.01566C13.6567 8.50685 14.0545 8.90522 14.5457 8.9057C15.0378 8.90643 15.4376 8.5077 15.4381 8.01566V7.12619C15.4381 3.85756 12.7675 1.18695 9.49884 1.18695Z" fill="#2C7955"/>
<path d="M14.546 9.79749C14.3101 9.79772 14.0839 9.89153 13.9171 10.0583C13.7503 10.2252 13.6565 10.4513 13.6563 10.6872C13.6561 10.8042 13.679 10.9201 13.7236 11.0283C13.7682 11.1364 13.8337 11.2347 13.9163 11.3175C13.999 11.4004 14.0971 11.4661 14.2051 11.511C14.3132 11.5559 14.429 11.5791 14.546 11.5792C14.6632 11.5793 14.7792 11.5564 14.8875 11.5116C14.9958 11.4669 15.0942 11.4012 15.1771 11.3183C15.2599 11.2355 15.3256 11.1371 15.3704 11.0288C15.4152 10.9205 15.4381 10.8044 15.4379 10.6872C15.4378 10.5702 15.4147 10.4544 15.3698 10.3464C15.3249 10.2383 15.2591 10.1402 15.1763 10.0576C15.0935 9.97494 14.9952 9.90945 14.887 9.86482C14.7789 9.82019 14.663 9.79731 14.546 9.79749Z" fill="#2C7955"/>
</svg>
