<svg width="21" height="21" viewBox="0 0 21 21" fill="none" xmlns="http://www.w3.org/2000/svg">
<g clip-path="url(#clip0_4597_70)">
<path d="M12.3562 0.768842C13.3813 1.79396 13.3813 3.45603 12.3562 4.48115C11.3311 5.50627 9.66899 5.50627 8.64387 4.48115C7.61875 3.45603 7.61875 1.79396 8.64387 0.768842C9.66895 -0.256281 11.331 -0.256281 12.3562 0.768842Z" fill="#2C7955"/>
<path d="M12.3562 8.64384C13.3813 9.66896 13.3813 11.331 12.3562 12.3561C11.3311 13.3813 9.66899 13.3813 8.64387 12.3561C7.61875 11.331 7.61875 9.66896 8.64387 8.64384C9.66895 7.61872 11.331 7.61872 12.3562 8.64384Z" fill="#2C7955"/>
<path d="M12.3562 16.5188C13.3813 17.544 13.3813 19.206 12.3562 20.2311C11.3311 21.2563 9.66899 21.2563 8.64387 20.2311C7.61875 19.206 7.61875 17.544 8.64387 16.5188C9.66895 15.4937 11.331 15.4937 12.3562 16.5188Z" fill="#2C7955"/>
</g>
<defs>
<clipPath id="clip0_4597_70">
<rect width="21" height="21" fill="white"/>
</clipPath>
</defs>
</svg>
