<svg width="23" height="23" viewBox="0 0 23 23" fill="none" xmlns="http://www.w3.org/2000/svg">
<path d="M11.5 5.75C11.2458 5.75 11.0021 5.85097 10.8224 6.03069C10.6426 6.21041 10.5417 6.45417 10.5417 6.70833V10.5417H6.70833C6.45417 10.5417 6.21041 10.6426 6.03069 10.8224C5.85097 11.0021 5.75 11.2458 5.75 11.5C5.75 11.7542 5.85097 11.9979 6.03069 12.1776C6.21041 12.3574 6.45417 12.4583 6.70833 12.4583H10.5417V16.2917C10.5417 16.5458 10.6426 16.7896 10.8224 16.9693C11.0021 17.149 11.2458 17.25 11.5 17.25C11.7542 17.25 11.9979 17.149 12.1776 16.9693C12.3574 16.7896 12.4583 16.5458 12.4583 16.2917V12.4583H16.2917C16.5458 12.4583 16.7896 12.3574 16.9693 12.1776C17.149 11.9979 17.25 11.7542 17.25 11.5C17.25 11.2458 17.149 11.0021 16.9693 10.8224C16.7896 10.6426 16.5458 10.5417 16.2917 10.5417H12.4583V6.70833C12.4583 6.45417 12.3574 6.21041 12.1776 6.03069C11.9979 5.85097 11.7542 5.75 11.5 5.75Z" fill="#2C7955"/>
</svg>
