<svg width="59" height="55" viewBox="0 0 59 55" fill="none" xmlns="http://www.w3.org/2000/svg">
<path d="M3.89331 53.9545C1.83644 53.9545 0.163086 52.2927 0.163086 50.2501V3.86549C0.163086 1.82288 1.83644 0.161133 3.89331 0.161133H54.4943C56.5512 0.161133 58.2246 1.82288 58.2246 3.86549V50.2501C58.2246 52.2927 56.5512 53.9545 54.4943 53.9545H3.89331Z" fill="#FF9024"/>
<path d="M54.4933 0.322059C56.4608 0.322059 58.0612 1.91166 58.0612 3.86525V50.2499C58.0612 52.2037 56.4605 53.7931 54.4933 53.7931H3.89224C1.92474 53.7931 0.324308 52.2035 0.324308 50.2499V3.86525C0.324308 1.91139 1.92501 0.322059 3.89224 0.322059H54.4933ZM54.4933 0H3.89224C1.75148 0 0 1.73934 0 3.86525V50.2499C0 52.3758 1.75148 54.1154 3.89224 54.1154H54.4933C56.634 54.1154 58.3858 52.3761 58.3858 50.2499V3.86525C58.3858 1.73934 56.634 0 54.4933 0Z" fill="#FF9024"/>
<path d="M44.4949 43.1334C35.1513 34.4893 23.3997 34.4893 14.0561 43.1334C13.6075 43.5483 12.9089 43.5385 12.4754 43.108C12.0199 42.6556 12.032 41.9158 12.5032 41.4795C17.5263 36.8287 23.3016 34.3771 29.2712 34.3757C29.2726 34.3757 29.2745 34.3757 29.2759 34.3757C35.2467 34.3757 41.023 36.827 46.0476 41.4795C46.5187 41.9158 46.5308 42.6556 46.0753 43.108C45.6421 43.5385 44.9435 43.5483 44.4949 43.1334Z" fill="black"/>
<path d="M17.6441 19.3078C15.8665 19.3078 14.0604 18.0992 13.62 15.7754C13.5149 15.2217 13.9419 14.7074 14.509 14.703L14.6404 14.7019C15.0885 14.6984 15.4577 15.0222 15.546 15.4584C15.8113 16.7721 16.7336 17.3697 17.6441 17.3697C18.5546 17.3697 19.4769 16.7724 19.7422 15.4584C19.8304 15.0219 20.1993 14.6984 20.6477 14.7019L20.7791 14.703C21.3463 14.7074 21.7732 15.222 21.6682 15.7754C21.2278 18.0989 19.4214 19.3078 17.6441 19.3078Z" fill="black"/>
<path d="M40.3306 19.3078C38.5533 19.3078 36.7469 18.0992 36.3065 15.7754C36.2015 15.2217 36.6284 14.7074 37.1955 14.703L37.3269 14.7019C37.775 14.6984 38.1442 15.0222 38.2325 15.4584C38.4978 16.7721 39.4201 17.3697 40.3306 17.3697C41.2411 17.3697 42.1634 16.7724 42.4287 15.4584C42.5169 15.0219 42.8859 14.6984 43.3342 14.7019L43.4657 14.703C44.0328 14.7074 44.4597 15.222 44.3547 15.7754C43.9143 18.0989 42.1079 19.3078 40.3306 19.3078Z" fill="black"/>
</svg>
