<svg width="19" height="19" viewBox="0 0 19 19" fill="none" xmlns="http://www.w3.org/2000/svg">
<path d="M7.71937 1.18695C4.12281 1.18695 1.18869 4.12107 1.18869 7.71763C1.18869 11.3142 4.12281 14.2506 7.71937 14.2506C9.19792 14.2506 10.5643 13.7543 11.6611 12.9199L14.511 15.7692C14.5937 15.852 14.6919 15.9176 14.8 15.9624C14.9081 16.0072 15.0239 16.0303 15.1409 16.0303C15.258 16.0303 15.3738 16.0072 15.4819 15.9624C15.59 15.9176 15.6882 15.852 15.7709 15.7692C15.9374 15.6023 16.0309 15.3761 16.0309 15.1404C16.0309 14.9046 15.9374 14.6785 15.7709 14.5115L12.9199 11.6605C13.7538 10.5632 14.25 9.19618 14.25 7.71763C14.25 4.12107 11.3159 1.18695 7.71937 1.18695ZM7.71937 2.96878C10.3533 2.96878 12.4682 5.08373 12.4682 7.71763C12.4682 10.3515 10.3533 12.4688 7.71937 12.4688C5.08547 12.4688 2.9682 10.3515 2.9682 7.71763C2.9682 5.08373 5.08547 2.96878 7.71937 2.96878Z" fill="#2C7955"/>
<path d="M16.9213 16.0323C16.6854 16.0325 16.4592 16.1263 16.2924 16.2931C16.1256 16.46 16.0318 16.6861 16.0316 16.922C16.0318 17.1579 16.1256 17.3841 16.2924 17.5509C16.4592 17.7177 16.6854 17.8116 16.9213 17.8118C17.0383 17.812 17.1542 17.7891 17.2623 17.7445C17.3705 17.6998 17.4688 17.6343 17.5516 17.5517C17.6344 17.4691 17.7002 17.3709 17.7451 17.2629C17.79 17.1549 17.8131 17.039 17.8132 16.922C17.8131 16.805 17.79 16.6892 17.7451 16.5812C17.7002 16.4731 17.6344 16.375 17.5516 16.2924C17.4688 16.2097 17.3705 16.1442 17.2623 16.0996C17.1542 16.055 17.0383 16.0321 16.9213 16.0323Z" fill="#2C7955"/>
</svg>
