<svg width="20" height="20" viewBox="0 0 20 20" fill="none" xmlns="http://www.w3.org/2000/svg">
<path fill-rule="evenodd" clip-rule="evenodd" d="M18.8859 0.280711C19.1427 0.537391 19.2323 0.917044 19.1175 1.26141L13.3675 18.5114C13.2388 18.8975 12.8803 19.1603 12.4733 19.1666C12.0664 19.1729 11.6998 18.9215 11.5591 18.5396L8.61587 10.5509L0.627031 7.6076C0.245135 7.46691 -0.00624527 7.10034 0.000118067 6.69339C0.00647182 6.28644 0.26917 5.92791 0.655283 5.79921L17.9053 0.0492061C18.2496 -0.065583 18.6293 0.0240403 18.8859 0.280711ZM3.85318 6.75358L9.69352 8.90522C9.95687 9.0023 10.1644 9.20988 10.2614 9.47323L12.4131 15.3135L16.6931 2.47362L3.85318 6.75358Z" fill="#2C7955"/>
</svg>
