<svg width="111" height="111" viewBox="0 0 111 111" fill="none" xmlns="http://www.w3.org/2000/svg">
<circle cx="55.5" cy="55.5" r="55.5" fill="#2FC7B5" fill-opacity="0.11"/>
<path d="M79.0082 76.6631C91.3548 64.3164 91.3548 44.2986 79.0082 31.9519C66.6615 19.6053 46.6436 19.6053 34.297 31.9519C21.9503 44.2986 21.9503 64.3164 34.297 76.6631C46.6436 89.0097 66.6615 89.0097 79.0082 76.6631Z" fill="#2FC7B5"/>
<path d="M56.6516 86.563C38.8136 86.563 24.3701 72.0529 24.3701 54.2815C24.3701 36.51 38.8801 22 56.6516 22C74.4896 22 88.9331 36.51 88.9331 54.2815C88.9996 72.1195 74.4896 86.563 56.6516 86.563ZM56.6516 23.3312C39.6123 23.3312 25.7013 37.2422 25.7013 54.2815C25.7013 71.3873 39.6123 85.2318 56.6516 85.2318C73.6909 85.2318 87.6019 71.3208 87.6019 54.2815C87.6684 37.2422 73.7574 23.3312 56.6516 23.3312Z" fill="white"/>
<path d="M53.457 89.6912C38.4145 89.6912 25.1691 79.0417 22.0408 64.332C21.9742 64.0657 22.1739 63.7995 22.4401 63.7329C22.7063 63.6664 22.9726 63.8661 23.0391 64.1323C26.1009 78.3761 38.8804 88.7594 53.457 88.7594C56.7849 88.7594 59.9798 88.2269 63.1081 87.2285C63.3744 87.162 63.6406 87.2951 63.7072 87.5613C63.7737 87.8276 63.6406 88.0938 63.3744 88.1604C60.1795 89.1588 56.8515 89.6912 53.457 89.6912ZM74.623 81.5044C74.4898 81.5044 74.3567 81.4378 74.2236 81.3713C74.0239 81.1716 74.0239 80.8388 74.2902 80.6391C80.813 74.7153 84.6069 66.3288 84.6069 57.5429V57.4098C84.6069 57.1435 84.8066 56.8773 85.1394 56.8773C85.4722 56.8773 85.6719 57.077 85.6719 57.4098V57.5429C85.6719 66.595 81.8114 75.3143 75.0223 81.4378C74.8226 81.5044 74.7561 81.5044 74.623 81.5044ZM21.8411 58.0754C21.5748 58.0754 21.3086 57.8757 21.3086 57.6095V57.5429C21.3086 48.4908 25.1691 39.838 31.8916 33.7145C32.0913 33.5148 32.4241 33.5148 32.6238 33.7811C32.8234 33.9807 32.8234 34.3135 32.5572 34.5132C26.0343 40.437 22.307 48.8236 22.307 57.6095C22.307 57.8091 22.1073 58.0754 21.8411 58.0754ZM84.3407 51.3528C84.141 51.3528 83.8748 51.2197 83.8748 50.9535C80.813 36.7097 68.0335 26.3929 53.457 26.3929C50.129 26.3929 46.8675 26.9254 43.7392 27.9238C43.473 27.9904 43.2068 27.8572 43.1402 27.591C43.0736 27.3248 43.2068 27.0585 43.473 26.992C46.6679 25.927 50.0624 25.3945 53.5235 25.3945C68.566 25.3945 81.7448 36.0441 84.9397 50.6872C85.0063 50.9535 84.8066 51.2197 84.5404 51.2863C84.4072 51.3528 84.4072 51.3528 84.3407 51.3528Z" fill="white"/>
<path d="M70.0024 40.0541L64.519 65.5312C64.4024 66.0854 64.0378 66.552 63.5274 66.8C63.017 67.0479 62.4336 67.0479 61.9086 66.8L57.8253 64.8166C57.8253 64.8166 52.6045 68.5937 51.5399 69.0895C51.3357 69.1916 51.2482 69.177 51.1024 69.177C50.8982 69.177 50.6795 69.1187 50.5045 69.002C50.1982 68.7979 50.0086 68.4625 50.0086 68.0979V60.3541C49.994 60.1937 50.0086 60.0333 50.0961 59.8729C50.0961 59.8729 50.1107 59.8437 50.1253 59.8291C50.169 59.7562 50.2128 59.6833 50.2711 59.6104L63.7024 44.9104L47.0045 58.6479C46.8732 58.7791 46.6982 58.8958 46.5086 58.9395C46.2024 59.027 45.867 58.9687 45.6045 58.7937L39.9899 56.2562C39.3628 55.95 38.969 55.3375 38.9399 54.6375C38.9253 53.952 39.2899 53.3104 39.9024 52.975L67.319 38.0562C67.9607 37.7062 68.719 37.7645 69.317 38.202C69.9003 38.6395 70.1628 39.3541 70.017 40.0541H70.0024Z" fill="white"/>
</svg>
