<svg width="19" height="19" viewBox="0 0 19 19" fill="none" xmlns="http://www.w3.org/2000/svg">
<path d="M6.77711 17.5937C6.38967 17.5941 6.00809 17.4991 5.66615 17.3169L5.16326 17.0494C4.67945 16.791 4.29978 16.3733 4.08853 15.8671C3.87727 15.361 3.84741 14.7973 4.00399 14.2716L4.08553 13.9987C4.11935 13.8863 4.12718 13.7677 4.10844 13.6519C4.08969 13.536 4.04484 13.426 3.9773 13.33C3.85321 13.1522 3.7384 12.9692 3.63288 12.7811C3.57587 12.6792 3.49665 12.5915 3.40108 12.5244C3.30551 12.4573 3.19607 12.4127 3.08087 12.3937L2.8022 12.3489C2.2611 12.2589 1.76764 11.9849 1.4052 11.5732C1.04277 11.1615 0.833582 10.6372 0.812991 10.0891L0.79327 9.51854C0.775082 8.97026 0.946973 8.43255 1.27983 7.99648C1.61268 7.56042 2.08603 7.25282 2.6197 7.12578L2.89416 7.06086C3.0086 7.03387 3.11537 6.98113 3.20634 6.90663C3.29731 6.83214 3.37008 6.73786 3.4191 6.63099C3.46471 6.53357 3.51149 6.43925 3.56136 6.34493C3.61277 6.24829 3.66533 6.15629 3.71945 6.06584C3.78132 5.96498 3.81926 5.8513 3.83039 5.7335C3.84151 5.61571 3.82551 5.49693 3.78362 5.38627L3.68428 5.12496C3.4915 4.61127 3.48195 4.04677 3.65725 3.52686C3.83255 3.00694 4.18195 2.56347 4.64641 2.27139L5.13001 1.9691C5.59566 1.67882 6.14739 1.55856 6.6916 1.62874C7.23581 1.69892 7.73899 1.9552 8.11577 2.35411L8.31021 2.56054C8.38974 2.64605 8.48783 2.7122 8.59693 2.75388C8.70602 2.79556 8.82322 2.81167 8.93952 2.80097C9.15481 2.78236 9.37096 2.77539 9.587 2.7801C9.70375 2.77886 9.8189 2.75286 9.92485 2.70381C10.0308 2.65477 10.1251 2.5838 10.2016 2.49559L10.3825 2.27525C10.7309 1.8516 11.2149 1.56128 11.7527 1.45337C12.2905 1.34547 12.849 1.42662 13.3339 1.68308L13.8368 1.95058C14.3206 2.20901 14.7003 2.62666 14.9115 3.13285C15.1228 3.63905 15.1526 4.20269 14.9961 4.72837L14.9145 5.00128C14.8807 5.11366 14.8729 5.23226 14.8916 5.34811C14.9104 5.46397 14.9552 5.57404 15.0228 5.67002C15.1468 5.84861 15.2616 6.03158 15.3672 6.21893C15.4242 6.32081 15.5034 6.40854 15.599 6.4756C15.6945 6.54265 15.804 6.58732 15.9192 6.60626L16.1979 6.6511C16.739 6.74106 17.2325 7.01506 17.5949 7.42679C17.9573 7.83853 18.1665 8.36276 18.1871 8.91091L18.2068 9.48146C18.225 10.0297 18.0531 10.5675 17.7202 11.0035C17.3874 11.4396 16.914 11.7472 16.3803 11.8742L16.1059 11.9391C15.9914 11.9661 15.8847 12.0188 15.7937 12.0933C15.7027 12.1678 15.6299 12.2621 15.5809 12.369C15.5353 12.4664 15.4885 12.5607 15.4387 12.655C15.3873 12.7517 15.3347 12.8437 15.2806 12.9341C15.2188 13.0347 15.1808 13.1481 15.1696 13.2657C15.1584 13.3832 15.1743 13.5017 15.216 13.6122L15.3158 13.8758C15.5085 14.3894 15.518 14.9537 15.3427 15.4735C15.1674 15.9933 14.818 16.4366 14.3536 16.7286L13.87 17.0309C13.4043 17.3208 12.8526 17.4409 12.3085 17.3707C11.7644 17.3006 11.2612 17.0445 10.8843 16.6459L10.6898 16.4394C10.6105 16.3536 10.5124 16.2873 10.4033 16.2456C10.2941 16.2039 10.1768 16.188 10.0605 16.199C9.84516 16.2168 9.62906 16.2238 9.41302 16.2199C9.29593 16.219 9.18011 16.2441 9.07385 16.2933C8.96759 16.3425 8.87352 16.4146 8.7984 16.5044L8.61749 16.7247C8.39421 16.9968 8.11329 17.2159 7.79502 17.3662C7.47675 17.5164 7.12908 17.5942 6.77711 17.5937ZM6.38708 3.19217C6.23936 3.19183 6.09454 3.23309 5.96918 3.31123L5.48599 3.61351C5.33132 3.71076 5.21494 3.85839 5.15648 4.03149C5.09803 4.20459 5.10109 4.39256 5.16514 4.56367L5.26489 4.82575C5.39194 5.16015 5.44103 5.51913 5.40841 5.87536C5.37579 6.23159 5.26233 6.57569 5.07665 6.88145C5.03761 6.94637 4.99818 7.01524 4.96028 7.08633C4.92394 7.15514 4.88799 7.22781 4.85436 7.29971C4.70505 7.6238 4.48373 7.90954 4.20727 8.13515C3.93082 8.36077 3.60651 8.52031 3.25907 8.60163L2.98345 8.66733C2.80575 8.70941 2.6481 8.81173 2.53732 8.9569C2.42654 9.10208 2.36947 9.28114 2.3758 9.46365L2.39552 10.0342C2.40239 10.2167 2.47203 10.3912 2.59267 10.5282C2.71332 10.6653 2.87757 10.7565 3.05768 10.7864L3.3364 10.8313C3.68607 10.8879 4.01844 11.0228 4.30867 11.2259C4.59891 11.4289 4.83951 11.695 5.0125 12.0041C5.09368 12.1479 5.18155 12.2878 5.27612 12.4239C5.48056 12.7153 5.61615 13.0493 5.67266 13.4007C5.72918 13.7521 5.70515 14.1118 5.60238 14.4525L5.52042 14.727C5.46829 14.902 5.47821 15.0896 5.54851 15.2581C5.61881 15.4266 5.74517 15.5656 5.90621 15.6517L6.4095 15.9192C6.57101 16.0042 6.75687 16.031 6.93582 15.9951C7.11477 15.9592 7.2759 15.8628 7.39213 15.722L7.57304 15.5017C7.7951 15.2221 8.07942 14.9983 8.40331 14.8481C8.7272 14.6979 9.08171 14.6255 9.43855 14.6366C9.60315 14.6405 9.76782 14.635 9.9318 14.6203C10.2848 14.592 10.6396 14.6431 10.9702 14.7699C11.3008 14.8968 11.5987 15.0961 11.8422 15.3533L12.037 15.5604C12.1626 15.6929 12.33 15.778 12.5111 15.8014C12.6921 15.8248 12.8757 15.785 13.0308 15.6888L13.514 15.3865C13.6687 15.2893 13.7851 15.1416 13.8435 14.9685C13.902 14.7954 13.8989 14.6075 13.8349 14.4363L13.7351 14.1727L13.7347 14.1719C13.6077 13.8379 13.5587 13.4793 13.5913 13.1234C13.624 12.7675 13.7376 12.4238 13.9234 12.1185C13.9624 12.0536 14.0018 11.9847 14.0397 11.9137C14.0761 11.8449 14.112 11.7722 14.1456 11.7003C14.295 11.3762 14.5163 11.0905 14.7927 10.8648C15.0692 10.6392 15.3935 10.4797 15.741 10.3984L16.0166 10.3327C16.1943 10.2906 16.3519 10.1883 16.4627 10.0431C16.5735 9.8979 16.6306 9.71883 16.6242 9.53632L16.6045 8.96577C16.5976 8.78331 16.528 8.60881 16.4074 8.47176C16.2867 8.3347 16.1225 8.24349 15.9423 8.21353L15.6636 8.16869C15.314 8.11208 14.9816 7.97719 14.6914 7.77411C14.4011 7.57102 14.1605 7.30499 13.9875 6.99587C13.9064 6.85131 13.8178 6.71137 13.7231 6.57453C13.5189 6.28334 13.3835 5.94958 13.3271 5.59843C13.2708 5.24728 13.2949 4.88791 13.3976 4.54743L13.4796 4.27297C13.5317 4.098 13.5218 3.91038 13.4515 3.74188C13.3812 3.57338 13.2548 3.43435 13.0938 3.34831L12.5905 3.08081C12.4292 2.99497 12.2431 2.96769 12.0639 3.00364C11.8848 3.03958 11.7236 3.13651 11.6079 3.27794L11.427 3.49827C11.1963 3.76789 10.9103 3.98471 10.5884 4.13398C10.2665 4.28326 9.91627 4.3615 9.56145 4.36338C9.39686 4.3599 9.23221 4.36532 9.06821 4.37962C8.71533 4.40714 8.36076 4.35564 8.0303 4.22886C7.69983 4.10209 7.40179 3.90323 7.15787 3.64676L6.96305 3.43956C6.88895 3.36128 6.79964 3.29896 6.7006 3.25641C6.60155 3.21387 6.49487 3.19201 6.38708 3.19217Z" fill="#2C7955"/>
<path d="M9.50003 13.0625C8.67307 13.0625 7.87184 12.7749 7.23371 12.2489C6.59559 11.7229 6.1603 10.9914 6.00249 10.1796C5.84468 9.36783 5.97417 8.52646 6.36876 7.79971C6.76335 7.07296 7.39846 6.50612 8.16521 6.19635C8.93196 5.88658 9.78259 5.85319 10.5713 6.10189C11.3599 6.3506 12.0375 6.86592 12.4879 7.5595C12.9382 8.25307 13.1333 9.08171 13.0396 9.90335C12.9459 10.725 12.5693 11.4884 11.9744 12.0628C11.8233 12.2086 11.6204 12.2884 11.4105 12.2846C11.2005 12.2808 11.0007 12.1938 10.8549 12.0427C10.7091 11.8916 10.6293 11.6888 10.6331 11.4788C10.6369 11.2689 10.7239 11.069 10.875 10.9233C11.0669 10.7394 11.2195 10.5184 11.3233 10.2737C11.4272 10.029 11.4802 9.76576 11.4792 9.49996C11.4792 9.10852 11.3631 8.72586 11.1456 8.40039C10.9282 8.07492 10.6191 7.82124 10.2574 7.67145C9.89577 7.52165 9.49783 7.48245 9.11391 7.55882C8.72999 7.63519 8.37733 7.82368 8.10054 8.10048C7.82375 8.37727 7.63525 8.72992 7.55889 9.11384C7.48252 9.49776 7.52172 9.89571 7.67151 10.2574C7.82131 10.619 8.07499 10.9281 8.40046 11.1456C8.72593 11.363 9.10858 11.4791 9.50003 11.4791C9.70999 11.4791 9.91135 11.5625 10.0598 11.711C10.2083 11.8595 10.2917 12.0608 10.2917 12.2708C10.2917 12.4808 10.2083 12.6821 10.0598 12.8306C9.91135 12.9791 9.70999 13.0625 9.50003 13.0625Z" fill="#2C7955"/>
</svg>
