<svg width="23" height="23" viewBox="0 0 23 23" fill="none" xmlns="http://www.w3.org/2000/svg">
<path d="M11.5003 6.70829C11.2462 6.70829 11.0024 6.60733 10.8227 6.4276C10.643 6.24788 10.542 6.00413 10.542 5.74996V2.87496C10.542 2.62079 10.643 2.37704 10.8227 2.19732C11.0024 2.01759 11.2462 1.91663 11.5003 1.91663C11.7545 1.91663 11.9982 2.01759 12.178 2.19732C12.3577 2.37704 12.4587 2.62079 12.4587 2.87496V5.74996C12.4587 6.00413 12.3577 6.24788 12.178 6.4276C11.9982 6.60733 11.7545 6.70829 11.5003 6.70829Z" fill="#2C7955"/>
<path d="M11.5003 21.0833C9.88924 21.0833 8.31432 20.6056 6.97475 19.7105C5.63517 18.8154 4.5911 17.5432 3.97456 16.0547C3.35802 14.5663 3.19671 12.9284 3.51102 11.3483C3.82532 9.76815 4.60114 8.3167 5.74036 7.17749C6.87957 6.03827 8.33102 5.26246 9.91116 4.94815C11.4913 4.63384 13.1291 4.79516 14.6176 5.41169C16.1061 6.02823 17.3783 7.0723 18.2733 8.41188C19.1684 9.75146 19.6462 11.3264 19.6462 12.9375C19.6436 15.0971 18.7846 17.1675 17.2575 18.6946C15.7304 20.2217 13.66 21.0808 11.5003 21.0833ZM11.5003 6.7083C10.2683 6.7083 9.06397 7.07363 8.03959 7.7581C7.01521 8.44257 6.2168 9.41543 5.74533 10.5537C5.27386 11.6919 5.1505 12.9444 5.39085 14.1527C5.63121 15.3611 6.22448 16.471 7.09564 17.3421C7.96681 18.2133 9.07674 18.8066 10.2851 19.0469C11.4934 19.2873 12.7459 19.1639 13.8841 18.6925C15.0224 18.221 15.9952 17.4226 16.6797 16.3982C17.3642 15.3738 17.7295 14.1695 17.7295 12.9375C17.727 11.2862 17.0699 9.70322 15.9022 8.53558C14.7346 7.36793 13.1516 6.71083 11.5003 6.7083Z" fill="#2C7955"/>
<path d="M20.126 7.6666C19.9999 7.66733 19.8748 7.64316 19.7581 7.59546C19.6413 7.54777 19.5351 7.4775 19.4456 7.38868L17.5289 5.47202C17.3485 5.29156 17.2471 5.04681 17.2471 4.7916C17.2471 4.53639 17.3485 4.29164 17.5289 4.11118C17.7094 3.93073 17.9541 3.82935 18.2093 3.82935C18.4645 3.82935 18.7093 3.93073 18.8897 4.11118L20.8064 6.02785C20.8962 6.11694 20.9675 6.22293 21.0162 6.33971C21.0648 6.4565 21.0899 6.58176 21.0899 6.70827C21.0899 6.83478 21.0648 6.96004 21.0162 7.07682C20.9675 7.1936 20.8962 7.29959 20.8064 7.38868C20.7169 7.4775 20.6107 7.54777 20.4939 7.59546C20.3771 7.64316 20.2521 7.66733 20.126 7.6666Z" fill="#2C7955"/>
<path d="M11.5008 13.8958C11.3576 13.8963 11.2162 13.8647 11.0868 13.8033C10.9575 13.742 10.8435 13.6524 10.7533 13.5412L8.83663 11.1454C8.75756 11.0468 8.69878 10.9335 8.66368 10.812C8.62857 10.6906 8.61784 10.5634 8.63209 10.4378C8.64634 10.3122 8.6853 10.1907 8.74672 10.0802C8.80814 9.96975 8.89081 9.87252 8.98996 9.79412C9.18856 9.63743 9.44106 9.56561 9.69239 9.59434C9.94373 9.62306 10.1735 9.74999 10.3316 9.94746L12.2483 12.3433C12.405 12.5419 12.4768 12.7944 12.4481 13.0457C12.4194 13.2971 12.2924 13.5268 12.095 13.685C11.9264 13.8202 11.717 13.8945 11.5008 13.8958Z" fill="#2C7955"/>
<path d="M11.501 14.3749C12.2949 14.3749 12.9385 13.7313 12.9385 12.9374C12.9385 12.1435 12.2949 11.4999 11.501 11.4999C10.7071 11.4999 10.0635 12.1435 10.0635 12.9374C10.0635 13.7313 10.7071 14.3749 11.501 14.3749Z" fill="#2C7955"/>
<path d="M13.4167 3.83329H9.58333C9.32917 3.83329 9.08541 3.73233 8.90569 3.5526C8.72597 3.37288 8.625 3.12913 8.625 2.87496C8.625 2.62079 8.72597 2.37704 8.90569 2.19732C9.08541 2.01759 9.32917 1.91663 9.58333 1.91663H13.4167C13.6708 1.91663 13.9146 2.01759 14.0943 2.19732C14.274 2.37704 14.375 2.62079 14.375 2.87496C14.375 3.12913 14.274 3.37288 14.0943 3.5526C13.9146 3.73233 13.6708 3.83329 13.4167 3.83329Z" fill="#2C7955"/>
</svg>
