<svg width="23" height="23" viewBox="0 0 23 23" fill="none" xmlns="http://www.w3.org/2000/svg">
<g clip-path="url(#clip0_442_3351)">
<path d="M11.5 0.71875C9.36767 0.71875 7.28323 1.35106 5.51026 2.53572C3.7373 3.72038 2.35544 5.40418 1.53943 7.37419C0.723421 9.34421 0.509917 11.512 0.925914 13.6033C1.34191 15.6947 2.36872 17.6157 3.87651 19.1235C5.38429 20.6313 7.30533 21.6581 9.39669 22.0741C11.488 22.4901 13.6558 22.2766 15.6258 21.4606C17.5958 20.6446 19.2796 19.2627 20.4643 17.4897C21.6489 15.7168 22.2813 13.6323 22.2813 11.5C22.2813 8.64063 21.1454 5.89838 19.1235 3.8765C17.1016 1.85463 14.3594 0.71875 11.5 0.71875ZM11.5 20.8438C9.65199 20.8438 7.84547 20.2957 6.3089 19.269C4.77232 18.2423 3.57471 16.783 2.86751 15.0757C2.1603 13.3684 1.97526 11.4896 2.33579 9.67712C2.69632 7.86461 3.58623 6.19972 4.89298 4.89297C6.19972 3.58622 7.86462 2.69632 9.67713 2.33579C11.4896 1.97526 13.3684 2.16029 15.0757 2.8675C16.783 3.57471 18.2423 4.77232 19.269 6.30889C20.2958 7.84546 20.8438 9.65198 20.8438 11.5C20.8438 13.9781 19.8593 16.3547 18.107 18.107C16.3547 19.8593 13.9781 20.8438 11.5 20.8438Z" fill="#2C7955"/>
<path d="M14.375 10.0625C15.1689 10.0625 15.8125 9.41891 15.8125 8.625C15.8125 7.83109 15.1689 7.1875 14.375 7.1875C13.5811 7.1875 12.9375 7.83109 12.9375 8.625C12.9375 9.41891 13.5811 10.0625 14.375 10.0625Z" fill="#2C7955"/>
<path d="M8.625 10.0625C9.41891 10.0625 10.0625 9.41891 10.0625 8.625C10.0625 7.83109 9.41891 7.1875 8.625 7.1875C7.83109 7.1875 7.1875 7.83109 7.1875 8.625C7.1875 9.41891 7.83109 10.0625 8.625 10.0625Z" fill="#2C7955"/>
<path d="M16.8403 13.7501C16.7583 13.7026 16.6677 13.6718 16.5737 13.6594C16.4797 13.6471 16.3842 13.6535 16.2926 13.6782C16.2011 13.7029 16.1154 13.7455 16.0404 13.8035C15.9654 13.8615 15.9026 13.9337 15.8556 14.0161C15.4138 14.7802 14.7788 15.4146 14.0143 15.8557C13.2498 16.2968 12.3827 16.529 11.5 16.529C10.6174 16.529 9.75027 16.2968 8.98574 15.8557C8.22122 15.4146 7.58618 14.7802 7.14439 14.0161C7.0972 13.934 7.03429 13.8619 6.95926 13.8041C6.88424 13.7463 6.79856 13.7039 6.70712 13.6792C6.61569 13.6545 6.52028 13.648 6.42635 13.6602C6.33243 13.6724 6.24182 13.7029 6.1597 13.7501C6.07758 13.7973 6.00557 13.8602 5.94776 13.9353C5.88995 14.0103 5.84749 14.096 5.8228 14.1874C5.7981 14.2788 5.79166 14.3743 5.80384 14.4682C5.81601 14.5621 5.84657 14.6527 5.89376 14.7348C6.46096 15.7202 7.27781 16.5386 8.26204 17.1077C9.24627 17.6768 10.3631 17.9764 11.5 17.9764C12.6369 17.9764 13.7538 17.6768 14.738 17.1077C15.7222 16.5386 16.5391 15.7202 17.1063 14.7348C17.1538 14.6528 17.1846 14.5622 17.197 14.4682C17.2093 14.3742 17.2029 14.2787 17.1782 14.1871C17.1535 14.0956 17.1109 14.0099 17.0529 13.9349C16.9949 13.8599 16.9227 13.7971 16.8403 13.7501Z" fill="#2C7955"/>
</g>
<defs>
<clipPath id="clip0_442_3351">
<rect width="23" height="23" fill="white"/>
</clipPath>
</defs>
</svg>
