<svg width="111" height="111" viewBox="0 0 111 111" fill="none" xmlns="http://www.w3.org/2000/svg">
<circle cx="55.5" cy="55.5" r="55.5" fill="#7DD6A0" fill-opacity="0.11"/>
<path d="M79.0091 76.6631C91.3558 64.3164 91.3558 44.2986 79.0091 31.9519C66.6625 19.6053 46.6446 19.6053 34.298 31.9519C21.9513 44.2986 21.9513 64.3164 34.298 76.6631C46.6446 89.0097 66.6625 89.0097 79.0091 76.6631Z" fill="#7DD6A0"/>
<path d="M56.6526 86.563C38.8146 86.563 24.3711 72.0529 24.3711 54.2815C24.3711 36.51 38.8811 22 56.6526 22C74.4906 22 88.934 36.51 88.934 54.2815C89.0006 72.1195 74.4906 86.563 56.6526 86.563ZM56.6526 23.3312C39.6133 23.3312 25.7023 37.2422 25.7023 54.2815C25.7023 71.3873 39.6133 85.2318 56.6526 85.2318C73.6919 85.2318 87.6029 71.3208 87.6029 54.2815C87.6694 37.2422 73.7584 23.3312 56.6526 23.3312Z" fill="white"/>
<path d="M53.457 89.6912C38.4145 89.6912 25.1691 79.0417 22.0408 64.332C21.9742 64.0657 22.1739 63.7995 22.4401 63.7329C22.7063 63.6664 22.9726 63.8661 23.0391 64.1323C26.1009 78.3761 38.8804 88.7594 53.457 88.7594C56.7849 88.7594 59.9798 88.2269 63.1081 87.2285C63.3744 87.162 63.6406 87.2951 63.7072 87.5613C63.7737 87.8276 63.6406 88.0938 63.3744 88.1604C60.1795 89.1588 56.8515 89.6912 53.457 89.6912ZM74.623 81.5044C74.4898 81.5044 74.3567 81.4378 74.2236 81.3713C74.0239 81.1716 74.0239 80.8388 74.2902 80.6391C80.813 74.7153 84.6069 66.3288 84.6069 57.5429V57.4098C84.6069 57.1435 84.8066 56.8773 85.1394 56.8773C85.4722 56.8773 85.6719 57.077 85.6719 57.4098V57.5429C85.6719 66.595 81.8114 75.3143 75.0223 81.4378C74.8226 81.5044 74.7561 81.5044 74.623 81.5044ZM21.8411 58.0754C21.5748 58.0754 21.3086 57.8757 21.3086 57.6095V57.5429C21.3086 48.4908 25.1691 39.838 31.8916 33.7145C32.0913 33.5148 32.4241 33.5148 32.6238 33.7811C32.8234 33.9807 32.8234 34.3135 32.5572 34.5132C26.0343 40.437 22.307 48.8236 22.307 57.6095C22.307 57.8091 22.1073 58.0754 21.8411 58.0754ZM84.3407 51.3528C84.141 51.3528 83.8748 51.2197 83.8748 50.9535C80.813 36.7097 68.0335 26.3929 53.457 26.3929C50.129 26.3929 46.8675 26.9254 43.7392 27.9238C43.473 27.9904 43.2068 27.8572 43.1402 27.591C43.0736 27.3248 43.2068 27.0585 43.473 26.992C46.6679 25.927 50.0624 25.3945 53.5235 25.3945C68.566 25.3945 81.7448 36.0441 84.9397 50.6872C85.0063 50.9535 84.8066 51.2197 84.5404 51.2863C84.4072 51.3528 84.4072 51.3528 84.3407 51.3528Z" fill="white"/>
<g clip-path="url(#clip0_1449_5632)">
<path d="M72.5688 40.2051L51.6787 59.5849L42.8441 50.157L37 55.6333L51.2727 70.8647L78 46.0924L72.5688 40.2051Z" fill="white"/>
</g>
<defs>
<clipPath id="clip0_1449_5632">
<rect width="41" height="41" fill="white" transform="translate(37 35)"/>
</clipPath>
</defs>
</svg>
