<svg width="17" height="17" viewBox="0 0 17 17" fill="none" xmlns="http://www.w3.org/2000/svg">
<path fill-rule="evenodd" clip-rule="evenodd" d="M1.41699 13.4583C1.41699 13.0671 1.73413 12.75 2.12533 12.75H3.18783C3.57902 12.75 3.89616 13.0671 3.89616 13.4583C3.89616 13.8495 3.57902 14.1667 3.18783 14.1667H2.12533C1.73413 14.1667 1.41699 13.8495 1.41699 13.4583Z" fill="#2C7955"/>
<path fill-rule="evenodd" clip-rule="evenodd" d="M5.3125 13.4583C5.3125 13.0671 5.62963 12.75 6.02083 12.75H14.875C15.2662 12.75 15.5833 13.0671 15.5833 13.4583C15.5833 13.8495 15.2662 14.1667 14.875 14.1667H6.02083C5.62963 14.1667 5.3125 13.8495 5.3125 13.4583Z" fill="#2C7955"/>
<path fill-rule="evenodd" clip-rule="evenodd" d="M1.41699 9.20833C1.41699 8.81712 1.73413 8.5 2.12533 8.5H3.18783C3.57902 8.5 3.89616 8.81712 3.89616 9.20833C3.89616 9.59955 3.57902 9.91667 3.18783 9.91667H2.12533C1.73413 9.91667 1.41699 9.59955 1.41699 9.20833Z" fill="#2C7955"/>
<path fill-rule="evenodd" clip-rule="evenodd" d="M5.3125 9.20833C5.3125 8.81712 5.62963 8.5 6.02083 8.5H14.875C15.2662 8.5 15.5833 8.81712 15.5833 9.20833C15.5833 9.59955 15.2662 9.91667 14.875 9.91667H6.02083C5.62963 9.91667 5.3125 9.59955 5.3125 9.20833Z" fill="#2C7955"/>
<path fill-rule="evenodd" clip-rule="evenodd" d="M7.4375 4.95833C7.4375 4.56713 7.75462 4.25 8.14583 4.25H14.875C15.2662 4.25 15.5833 4.56713 15.5833 4.95833C15.5833 5.34953 15.2662 5.66667 14.875 5.66667H8.14583C7.75462 5.66667 7.4375 5.34953 7.4375 4.95833Z" fill="#2C7955"/>
<path fill-rule="evenodd" clip-rule="evenodd" d="M7.58452 2.33246C7.86113 2.60909 7.86113 3.05758 7.58452 3.3342L4.04286 6.87587C3.76624 7.15247 3.31775 7.15247 3.04112 6.87587L1.62446 5.4592C1.34784 5.18258 1.34784 4.73409 1.62446 4.45746C1.90108 4.18085 2.34957 4.18085 2.62619 4.45746L3.54199 5.37327L6.58279 2.33246C6.85941 2.05585 7.30792 2.05585 7.58452 2.33246Z" fill="#2C7955"/>
</svg>
