<svg width="19" height="19" viewBox="0 0 19 19" fill="none" xmlns="http://www.w3.org/2000/svg">
<path d="M8.3125 9.32781V1.78125C8.3125 1.46631 8.43762 1.16426 8.66032 0.941561C8.88302 0.718861 9.18506 0.59375 9.5 0.59375C9.81495 0.59375 10.117 0.718861 10.3397 0.941561C10.5624 1.16426 10.6875 1.46631 10.6875 1.78125V9.32781C10.6875 9.64276 10.5624 9.9448 10.3397 10.1675C10.117 10.3902 9.81495 10.5153 9.5 10.5153C9.18506 10.5153 8.88302 10.3902 8.66032 10.1675C8.43762 9.9448 8.3125 9.64276 8.3125 9.32781ZM14.345 3.18844C14.2179 3.09799 14.0742 3.03346 13.9222 2.99853C13.7702 2.96361 13.6128 2.95897 13.4589 2.98488C13.3051 3.0108 13.1579 3.06675 13.0257 3.14956C12.8935 3.23237 12.7789 3.34041 12.6884 3.4675C12.598 3.5946 12.5335 3.73826 12.4985 3.89029C12.4636 4.04233 12.459 4.19975 12.4849 4.35358C12.5108 4.5074 12.5668 4.65462 12.6496 4.78682C12.7324 4.91902 12.8404 5.03361 12.9675 5.12406C14.0075 5.86002 14.7864 6.9078 15.1914 8.11577C15.5964 9.32375 15.6066 10.6293 15.2205 11.8434C14.8343 13.0575 14.0719 14.1173 13.0435 14.8694C12.0151 15.6215 10.7741 16.0269 9.5 16.0269C8.22594 16.0269 6.98491 15.6215 5.95651 14.8694C4.92811 14.1173 4.16567 13.0575 3.77953 11.8434C3.39339 10.6293 3.40357 9.32375 3.8086 8.11577C4.21363 6.9078 4.9925 5.86002 6.0325 5.12406C6.1596 5.03361 6.26764 4.91902 6.35044 4.78682C6.43325 4.65462 6.48921 4.5074 6.51512 4.35358C6.54103 4.19975 6.5364 4.04233 6.50147 3.89029C6.46654 3.73826 6.40202 3.5946 6.31157 3.4675C6.22112 3.34041 6.10652 3.23237 5.97432 3.14956C5.84212 3.06675 5.69491 3.0108 5.54108 2.98488C5.23042 2.93255 4.91168 3.00577 4.65501 3.18844C3.20484 4.21643 2.11923 5.67903 1.55517 7.36472C0.991115 9.05042 0.977842 10.8718 1.51728 12.5656C2.05671 14.2593 3.12089 15.7376 4.55592 16.7866C5.99094 17.8356 7.72244 18.401 9.5 18.401C11.2776 18.401 13.0091 17.8356 14.4441 16.7866C15.8791 15.7376 16.9433 14.2593 17.4827 12.5656C18.0222 10.8718 18.0089 9.05042 17.4448 7.36472C16.8808 5.67903 15.7952 4.21643 14.345 3.18844Z" fill="#2C7955"/>
</svg>
