<svg width="19" height="19" viewBox="0 0 19 19" fill="none" xmlns="http://www.w3.org/2000/svg">
<path d="M9.5004 1.1875C7.21552 1.1875 5.343 3.05771 5.343 5.34259C5.343 6.51133 5.83305 7.57181 6.61746 8.32932C4.12259 9.43966 2.37601 11.9433 2.37598 14.8426V15.1406C2.37604 16.6057 3.58219 17.8119 5.04728 17.8119H8.60804C8.72524 17.8121 8.84134 17.7892 8.94967 17.7445C9.058 17.6998 9.15644 17.6341 9.23934 17.5513C9.32224 17.4684 9.38798 17.37 9.43278 17.2617C9.47758 17.1534 9.50056 17.0373 9.5004 16.9201C9.50025 16.8031 9.47705 16.6873 9.43211 16.5793C9.38718 16.4712 9.32139 16.3731 9.23852 16.2905C9.15565 16.2079 9.05732 16.1424 8.94914 16.0979C8.84095 16.0533 8.72505 16.0304 8.60804 16.0307H5.04728C4.54484 16.0307 4.15494 15.6431 4.15492 15.1406V14.8426C4.15494 11.8808 6.53859 9.5 9.5004 9.5C12.4622 9.5 14.843 11.8808 14.843 14.8426V15.1406C14.843 15.6431 14.4559 16.0307 13.9535 16.0307C13.8365 16.0304 13.7206 16.0533 13.6124 16.0979C13.5043 16.1424 13.4059 16.2079 13.323 16.2905C13.2402 16.3731 13.1744 16.4712 13.1295 16.5793C13.0845 16.6873 13.0613 16.8031 13.0612 16.9201C13.061 17.0373 13.084 17.1534 13.1288 17.2617C13.1736 17.37 13.2393 17.4684 13.3222 17.5513C13.4051 17.6341 13.5036 17.6998 13.6119 17.7445C13.7202 17.7892 13.8363 17.8121 13.9535 17.8119C15.4186 17.8119 16.6248 16.6057 16.6248 15.1406V14.8426C16.6248 11.9429 14.8776 9.43945 12.3822 8.32932C13.1659 7.57183 13.6555 6.51118 13.6555 5.34259C13.6555 3.05771 11.7853 1.1875 9.5004 1.1875ZM9.5004 2.96933C10.8226 2.96933 11.876 4.02037 11.876 5.34259C11.876 6.66483 10.8226 7.71817 9.5004 7.71817C8.17818 7.71817 7.12482 6.66483 7.12482 5.34259C7.12482 4.02037 8.17818 2.96933 9.5004 2.96933Z" fill="#2C7955"/>
<path d="M11.2816 16.0313C11.1646 16.0311 11.0487 16.054 10.9406 16.0986C10.8324 16.1432 10.7341 16.2087 10.6513 16.2913C10.5685 16.374 10.5027 16.4721 10.4578 16.5801C10.4129 16.6882 10.3898 16.804 10.3896 16.921C10.3895 17.0382 10.4124 17.1542 10.4572 17.2625C10.502 17.3708 10.5676 17.4692 10.6505 17.5521C10.7334 17.6349 10.8318 17.7006 10.9401 17.7454C11.0483 17.7902 11.1644 17.8131 11.2816 17.8129C11.3986 17.8128 11.5144 17.7897 11.6224 17.7448C11.7305 17.6999 11.8286 17.6341 11.9113 17.5513C11.9939 17.4685 12.0594 17.3702 12.104 17.262C12.1486 17.1539 12.1715 17.038 12.1713 16.921C12.1711 16.6851 12.0773 16.4589 11.9105 16.2921C11.7437 16.1253 11.5175 16.0315 11.2816 16.0313Z" fill="#2C7955"/>
</svg>
