<svg width="23" height="23" viewBox="0 0 23 23" fill="none" xmlns="http://www.w3.org/2000/svg">
<path d="M14.375 8.62504H4.79171C3.77504 8.62504 2.80002 8.22117 2.08113 7.50228C1.36224 6.78339 0.958374 5.80837 0.958374 4.79171C0.958374 3.77504 1.36224 2.80002 2.08113 2.08113C2.80002 1.36224 3.77504 0.958374 4.79171 0.958374H13.4167C13.9248 0.959033 14.412 1.16118 14.7713 1.52048C15.1306 1.87978 15.3327 2.36691 15.3334 2.87504V4.79171C15.3334 5.04587 15.2324 5.28963 15.0527 5.46935C14.873 5.64907 14.6292 5.75004 14.375 5.75004C14.1209 5.75004 13.8771 5.64907 13.6974 5.46935C13.5177 5.28963 13.4167 5.04587 13.4167 4.79171V2.87504H4.79171C4.28338 2.87504 3.79586 3.07697 3.43642 3.43642C3.07697 3.79586 2.87504 4.28338 2.87504 4.79171C2.87504 5.30004 3.07697 5.78755 3.43642 6.147C3.79586 6.50644 4.28338 6.70837 4.79171 6.70837H14.375C14.6292 6.70837 14.873 6.80934 15.0527 6.98906C15.2324 7.16879 15.3334 7.41254 15.3334 7.66671C15.3334 7.92087 15.2324 8.16463 15.0527 8.34435C14.873 8.52407 14.6292 8.62504 14.375 8.62504Z" fill="#2C7955"/>
<path d="M16.7709 21.0834H4.79171C3.77536 21.0824 2.80092 20.6782 2.08225 19.9595C1.36358 19.2408 0.959389 18.2664 0.958374 17.25V4.79171C0.958374 4.53754 1.05934 4.29379 1.23906 4.11406C1.41879 3.93434 1.66254 3.83337 1.91671 3.83337C2.17087 3.83337 2.41463 3.93434 2.59435 4.11406C2.77407 4.29379 2.87504 4.53754 2.87504 4.79171C2.8757 5.29984 3.07785 5.78697 3.43715 6.14627C3.79645 6.50557 4.28358 6.70771 4.79171 6.70837H16.7709C17.6601 6.70945 18.5126 7.06318 19.1414 7.69197C19.7702 8.32077 20.124 9.17329 20.125 10.0625V11.5C20.125 11.7542 20.0241 11.998 19.8444 12.1777C19.6646 12.3574 19.4209 12.4584 19.1667 12.4584C18.9125 12.4584 18.6688 12.3574 18.4891 12.1777C18.3093 11.998 18.2084 11.7542 18.2084 11.5V10.0625C18.208 9.68142 18.0564 9.31603 17.7869 9.04653C17.5174 8.77704 17.152 8.62546 16.7709 8.62504H4.79171C4.11855 8.62593 3.45719 8.44832 2.87504 8.11031V17.25C2.8757 17.7582 3.07785 18.2453 3.43715 18.6046C3.79645 18.9639 4.28358 19.166 4.79171 19.1667H16.7709C17.152 19.1663 17.5174 19.0147 17.7869 18.7452C18.0564 18.4757 18.208 18.1103 18.2084 17.7292V16.2917C18.2084 16.0375 18.3093 15.7938 18.4891 15.6141C18.6688 15.4343 18.9125 15.3334 19.1667 15.3334C19.4209 15.3334 19.6646 15.4343 19.8444 15.6141C20.0241 15.7938 20.125 16.0375 20.125 16.2917V17.7292C20.124 18.6185 19.7702 19.471 19.1414 20.0998C18.5126 20.7286 17.6601 21.0823 16.7709 21.0834Z" fill="#2C7955"/>
<path d="M16.2917 8.62504H5.75008C5.62421 8.62511 5.49956 8.60037 5.38326 8.55224C5.26696 8.5041 5.16128 8.43351 5.07228 8.34451C4.98327 8.25551 4.91269 8.14983 4.86455 8.03353C4.81642 7.91723 4.79168 7.79258 4.79175 7.66671V5.75004C4.79241 5.24191 4.99455 4.75478 5.35386 4.39548C5.71316 4.03618 6.20029 3.83403 6.70841 3.83337H15.3334C15.8415 3.83403 16.3287 4.03618 16.688 4.39548C17.0473 4.75478 17.2494 5.24191 17.2501 5.75004V7.66671C17.2502 7.79258 17.2254 7.91723 17.1773 8.03353C17.1291 8.14983 17.0586 8.25551 16.9696 8.34451C16.8805 8.43351 16.7749 8.5041 16.6586 8.55224C16.5423 8.60037 16.4176 8.62511 16.2917 8.62504ZM6.70841 6.70837H15.3334V5.75004H6.70841V6.70837Z" fill="#2C7955"/>
<path d="M19.6459 17.2501H15.8125C14.923 17.2501 14.0698 16.8967 13.4408 16.2677C12.8118 15.6386 12.4584 14.7855 12.4584 13.8959C12.4584 13.0063 12.8118 12.1532 13.4408 11.5242C14.0698 10.8951 14.923 10.5417 15.8125 10.5417H19.6459C20.2811 10.5423 20.8902 10.7949 21.3393 11.2441C21.7885 11.6933 22.0411 12.3023 22.0417 12.9376V14.8542C22.0411 15.4895 21.7885 16.0985 21.3393 16.5477C20.8902 16.9969 20.2811 17.2495 19.6459 17.2501ZM15.8125 12.4584C15.4313 12.4584 15.0657 12.6099 14.7961 12.8794C14.5265 13.149 14.375 13.5147 14.375 13.8959C14.375 14.2772 14.5265 14.6428 14.7961 14.9124C15.0657 15.182 15.4313 15.3334 15.8125 15.3334H19.6459C19.7729 15.3332 19.8946 15.2826 19.9844 15.1928C20.0742 15.103 20.1248 14.9813 20.125 14.8542V12.9376C20.1248 12.8106 20.0742 12.6888 19.9844 12.599C19.8946 12.5092 19.7729 12.4587 19.6459 12.4584H15.8125Z" fill="#2C7955"/>
</svg>
