<svg width="60" height="55" viewBox="0 0 60 55" fill="none" xmlns="http://www.w3.org/2000/svg">
<path d="M4.636 53.9545C2.57913 53.9545 0.905762 52.2927 0.905762 50.2501V3.86549C0.905762 1.82288 2.57913 0.161133 4.636 0.161133H55.237C57.2939 0.161133 58.9673 1.82288 58.9673 3.86549V50.2501C58.9673 52.2927 57.2939 53.9545 55.237 53.9545H4.636Z" fill="#ADE2DE"/>
<path d="M55.2357 0.322059C57.2032 0.322059 58.8037 1.91166 58.8037 3.86525V50.2499C58.8037 52.2037 57.203 53.7931 55.2357 53.7931H4.63471C2.66721 53.7931 1.06677 52.2035 1.06677 50.2499V3.86525C1.06677 1.91139 2.66748 0.322059 4.63471 0.322059H55.2357ZM55.2357 0H4.63471C2.49395 0 0.742188 1.73934 0.742188 3.86552V50.2501C0.742188 52.3761 2.49368 54.1157 4.63471 54.1157H55.2357C57.3765 54.1157 59.128 52.3763 59.128 50.2501V3.86525C59.128 1.73934 57.3765 0 55.2357 0Z" fill="#ADE2DE"/>
<path d="M20.205 20.1627C21.9964 20.1627 23.4487 18.7206 23.4487 16.9416C23.4487 15.1626 21.9964 13.7205 20.205 13.7205C18.4136 13.7205 16.9614 15.1626 16.9614 16.9416C16.9614 18.7206 18.4136 20.1627 20.205 20.1627Z" fill="black"/>
<path d="M15.301 34.5904C24.6184 43.2103 36.3371 43.2103 45.6546 34.5904C46.102 34.1763 46.7986 34.1864 47.2309 34.6157C47.6851 35.0668 47.6731 35.8046 47.2032 36.2396C42.1941 40.8775 36.435 43.3222 30.482 43.3235C30.4807 43.3235 30.4787 43.3235 30.4774 43.3235C24.5233 43.3235 18.7631 40.8791 13.7526 36.2396C13.2828 35.8046 13.2707 35.0668 13.725 34.6157C14.157 34.1864 14.8533 34.1763 15.301 34.5904Z" fill="black"/>
<path d="M41.5058 14.667C43.2784 14.667 45.0795 15.8722 45.5187 18.1895C45.6234 18.7416 45.1977 19.2545 44.6321 19.2589L44.5011 19.2599C44.0542 19.2635 43.6861 18.9406 43.5981 18.5056C43.3335 17.1955 42.4138 16.5996 41.5058 16.5996C40.5979 16.5996 39.6781 17.1953 39.4136 18.5056C39.3259 18.9409 38.9577 19.2635 38.5106 19.2599L38.3795 19.2589C37.814 19.2542 37.3882 18.7413 37.493 18.1895C37.9321 15.8722 39.7332 14.667 41.5058 14.667Z" fill="black"/>
</svg>
